<?xml version="1.0" standalone="no"?>
<!DOCTYPE svg PUBLIC "-//W3C//DTD SVG 20010904//EN"
 "http://www.w3.org/TR/2001/REC-SVG-20010904/DTD/svg10.dtd">
<svg version="1.0" xmlns="http://www.w3.org/2000/svg"
 width="1273.000000pt" height="1280.000000pt" viewBox="0 0 1273.000000 1280.000000"
 preserveAspectRatio="xMidYMid meet">
<metadata>
Created by potrace 1.15, written by Peter Selinger 2001-2017
</metadata>
<g transform="translate(0.000000,1280.000000) scale(0.100000,-0.100000)"
fill="#ff5722" stroke="none">
<path d="M5606 12758 c-42 -99 -88 -310 -102 -465 -4 -40 -10 -73 -13 -73 -3
0 -12 9 -19 20 -40 64 -180 51 -217 -20 -15 -29 -20 -91 -9 -103 4 -3 24 3 45
13 21 11 44 20 52 20 27 0 47 -37 63 -116 20 -95 36 -131 75 -164 l30 -25 -15
-130 c-16 -131 -38 -229 -56 -240 -6 -3 -7 19 -3 58 22 235 -123 444 -321 464
-100 10 -164 -44 -257 -218 -30 -56 -69 -118 -87 -139 -34 -40 -110 -77 -137
-67 -8 4 -31 -5 -51 -18 -28 -19 -50 -25 -92 -25 -47 0 -76 9 -183 60 -163 75
-229 90 -292 66 -159 -60 -215 -303 -116 -498 10 -20 39 -62 64 -93 33 -40 41
-55 28 -55 -9 0 -72 57 -140 126 -120 121 -124 126 -116 157 13 54 6 91 -33
180 -24 57 -35 93 -31 109 7 27 44 48 82 48 35 0 32 25 -9 66 -26 26 -42 34
-70 34 -79 0 -146 -55 -146 -119 0 -17 -2 -31 -4 -31 -2 0 -66 62 -142 139
-125 124 -188 178 -278 237 l-29 18 6 -84 c7 -108 39 -263 82 -397 27 -86 30
-103 17 -97 -33 14 -93 16 -123 4 -71 -30 -100 -111 -63 -181 l15 -31 38 41
c21 23 41 41 44 41 24 0 62 -31 96 -79 53 -76 95 -114 138 -126 34 -9 38 -15
59 -80 44 -135 65 -226 62 -268 l-3 -42 -19 59 c-40 121 -138 235 -244 284
-67 31 -170 41 -229 22 -107 -35 -136 -92 -158 -310 -18 -186 -36 -233 -102
-265 -22 -11 -48 -34 -58 -51 -9 -17 -35 -42 -58 -55 -39 -22 -55 -24 -232
-29 -167 -4 -195 -7 -230 -26 -108 -56 -139 -230 -67 -376 40 -82 133 -171
220 -213 34 -16 62 -32 62 -36 0 -19 -119 18 -263 81 -94 42 -95 42 -101 83
-6 33 -21 55 -91 127 -52 53 -85 94 -85 107 0 13 17 35 42 56 l42 35 -35 22
c-52 32 -113 23 -156 -24 -40 -43 -49 -78 -36 -128 8 -29 8 -38 -1 -34 -149
66 -211 91 -284 115 -92 30 -245 65 -262 59 -26 -8 142 -260 262 -394 l70 -79
-35 -6 c-74 -12 -127 -73 -127 -146 0 -33 6 -48 31 -73 17 -17 36 -29 41 -28
6 2 16 21 23 42 25 71 44 72 172 5 88 -46 102 -50 143 -45 l45 6 80 -91 c81
-92 145 -183 145 -206 0 -7 -18 7 -41 32 -129 140 -333 196 -476 130 -153 -70
-177 -156 -103 -372 67 -195 70 -255 16 -312 -15 -16 -26 -39 -26 -55 0 -35
-21 -74 -57 -107 -34 -32 -60 -46 -178 -93 -124 -50 -187 -94 -214 -148 -44
-92 -16 -209 74 -306 82 -89 209 -142 339 -142 36 0 56 -4 50 -9 -19 -18 -119
-31 -243 -31 l-129 0 -26 35 c-31 40 -75 65 -156 88 -101 30 -120 59 -80 125
11 18 18 37 15 43 -12 18 -91 10 -119 -12 -60 -47 -75 -135 -31 -187 14 -17
25 -32 25 -35 0 -2 -78 -7 -172 -10 -161 -5 -275 -19 -378 -47 l-42 -11 58
-45 c87 -68 186 -126 328 -195 l128 -62 -31 -17 c-93 -47 -96 -198 -6 -236 58
-24 65 -20 58 34 -4 38 -2 52 13 66 16 16 30 17 128 11 111 -7 137 -2 181 29
18 13 32 9 152 -49 123 -59 209 -112 199 -122 -3 -3 -35 7 -73 22 -119 48
-273 45 -376 -7 -90 -45 -167 -151 -167 -230 0 -59 40 -125 145 -239 114 -125
139 -170 131 -237 -7 -58 -7 -66 0 -124 8 -67 -17 -112 -131 -237 -105 -114
-145 -180 -145 -239 0 -79 77 -185 167 -230 103 -52 257 -55 376 -7 148 59 59
-11 -126 -100 -120 -58 -134 -62 -152 -49 -44 31 -70 36 -181 29 -98 -6 -112
-5 -128 11 -15 14 -17 28 -13 66 7 54 0 58 -58 34 -90 -38 -87 -189 6 -236
l31 -17 -128 -62 c-142 -69 -241 -127 -328 -195 l-58 -45 42 -11 c103 -28 217
-42 378 -47 94 -3 172 -8 172 -10 0 -3 -11 -18 -25 -35 -44 -52 -29 -140 31
-187 28 -22 107 -30 119 -12 3 6 -4 25 -15 43 -40 66 -21 95 80 125 81 23 125
48 156 88 l26 35 129 0 c124 0 224 -13 244 -31 5 -5 -15 -9 -51 -9 -224 0
-419 -153 -432 -341 -9 -117 50 -181 233 -255 118 -47 144 -61 178 -93 36 -33
57 -72 57 -107 0 -16 11 -39 26 -55 54 -57 51 -117 -16 -312 -73 -214 -50
-302 100 -371 45 -21 70 -26 137 -26 129 0 249 55 342 155 23 25 41 39 41 32
0 -23 -64 -114 -145 -206 -79 -90 -81 -91 -117 -85 -47 7 -90 -7 -176 -57 -94
-55 -123 -52 -147 17 -7 21 -17 40 -23 42 -5 1 -24 -11 -41 -28 -72 -72 -15
-201 96 -219 l35 -6 -70 -79 c-120 -134 -288 -386 -262 -394 17 -6 170 29 262
59 73 24 135 49 284 115 9 4 9 -5 1 -34 -13 -50 -4 -85 36 -128 43 -47 104
-56 156 -24 l35 22 -42 35 c-25 21 -42 43 -42 56 0 13 33 54 85 107 70 72 85
94 91 127 6 41 7 41 101 83 144 63 263 100 263 81 0 -4 -28 -20 -62 -36 -87
-42 -180 -131 -220 -213 -72 -146 -41 -320 67 -376 35 -19 63 -22 230 -26 177
-5 193 -7 232 -29 23 -13 49 -38 58 -55 10 -17 36 -40 58 -51 66 -32 85 -81
103 -265 20 -217 50 -275 157 -310 59 -19 162 -9 229 22 106 49 204 163 244
284 l19 59 3 -42 c3 -42 -18 -133 -62 -268 -21 -65 -25 -71 -59 -80 -43 -12
-85 -50 -138 -126 -34 -48 -72 -79 -96 -79 -3 0 -23 18 -44 41 l-38 41 -15
-31 c-37 -70 -8 -151 63 -181 30 -12 90 -10 123 4 13 6 10 -11 -17 -97 -43
-134 -75 -289 -82 -397 l-6 -84 29 18 c81 52 201 155 302 260 61 64 114 116
117 116 3 0 5 -14 5 -31 0 -64 67 -119 146 -119 28 0 44 8 70 34 41 41 44 66
9 66 -38 0 -75 21 -82 48 -4 16 7 52 31 109 39 89 46 126 33 180 -8 31 -4 36
116 157 68 69 131 126 140 126 13 0 5 -15 -28 -55 -85 -105 -120 -205 -113
-324 8 -127 72 -232 165 -267 63 -24 129 -9 292 66 107 51 136 60 183 60 42 0
64 -6 92 -25 20 -13 43 -22 51 -18 27 10 103 -27 137 -67 18 -21 57 -83 87
-139 93 -174 157 -228 257 -218 198 20 342 230 321 464 -4 39 -3 61 3 58 18
-11 40 -109 56 -240 l15 -130 -30 -25 c-39 -33 -55 -69 -75 -164 -16 -79 -36
-116 -63 -116 -8 0 -31 9 -52 20 -45 22 -51 19 -51 -27 0 -82 57 -128 148
-121 44 4 60 10 78 31 13 15 25 27 27 27 2 0 7 -34 11 -76 15 -165 87 -471
115 -488 23 -15 144 223 204 399 23 69 45 125 48 125 3 0 11 -11 17 -25 6 -14
26 -34 44 -45 84 -51 198 3 198 95 0 25 -1 25 -54 19 -74 -9 -86 9 -86 133 0
98 -9 135 -42 170 l-21 22 43 125 c40 117 96 234 106 223 3 -3 -2 -29 -10 -58
-49 -176 -13 -343 95 -444 88 -82 173 -104 254 -65 49 23 69 41 170 155 116
132 167 164 244 151 21 -3 54 1 80 10 67 23 123 2 246 -92 133 -102 210 -139
273 -130 86 11 187 109 217 210 33 109 12 268 -50 375 -14 24 -24 45 -23 47
13 13 93 -89 163 -210 l58 -98 -17 -35 c-20 -42 -20 -99 -1 -178 27 -114 16
-139 -64 -137 -28 0 -51 -1 -51 -3 0 -26 38 -89 61 -100 67 -35 161 -7 188 57
9 21 19 38 22 38 3 0 32 -44 64 -97 94 -159 271 -380 289 -362 3 3 10 56 17
119 11 107 8 241 -8 398 l-6 64 39 -21 c43 -24 70 -26 111 -10 71 26 107 96
81 158 l-13 32 -34 -26 c-41 -29 -72 -32 -94 -7 -8 9 -34 56 -56 104 -36 75
-48 91 -85 113 l-43 25 -13 143 c-9 100 -10 158 -3 192 11 57 16 49 31 -49 21
-136 116 -272 227 -326 51 -25 160 -38 210 -26 37 9 93 63 120 115 13 26 37
96 55 156 17 61 43 129 57 153 26 46 74 82 109 82 11 0 31 12 45 26 57 61 129
69 293 30 143 -34 189 -39 238 -26 62 17 103 52 134 117 38 78 40 199 5 285
-29 75 -96 163 -161 213 -29 21 -48 41 -42 43 18 6 141 -64 234 -133 82 -61
87 -67 82 -94 -7 -36 27 -111 87 -193 53 -71 50 -96 -18 -128 l-47 -22 38 -35
c34 -32 43 -35 81 -31 80 9 144 83 130 148 -4 17 -4 30 -1 30 2 0 42 -27 88
-60 46 -32 119 -80 162 -106 85 -50 254 -129 262 -121 7 7 -44 162 -85 256
-21 48 -63 131 -94 185 l-57 99 37 -6 c53 -9 113 22 141 72 28 49 28 80 0 121
-31 45 -43 47 -58 10 -18 -43 -50 -63 -82 -51 -13 5 -49 31 -79 58 -79 71 -99
83 -145 83 l-41 0 -62 108 c-65 115 -104 204 -99 230 2 9 19 -10 41 -45 103
-169 303 -259 459 -208 149 48 179 130 143 385 -22 148 -7 215 55 261 16 12
32 34 35 49 7 31 55 81 100 103 17 8 73 22 125 32 172 31 230 52 277 101 48
49 57 83 51 177 -10 162 -165 318 -355 358 -51 10 -55 13 -34 20 26 10 85 5
206 -17 143 -27 154 -31 169 -68 18 -43 46 -69 129 -117 37 -22 74 -51 83 -64
14 -21 14 -27 0 -52 -8 -16 -22 -35 -30 -42 -22 -18 -20 -26 9 -39 58 -26 130
0 160 57 20 40 19 105 -2 138 l-18 26 35 -7 c168 -36 254 -47 399 -53 186 -7
178 -14 97 81 -63 74 -197 192 -293 259 -74 52 -87 67 -55 67 30 0 78 36 95
73 34 70 14 142 -47 171 -46 22 -46 21 -46 -22 0 -46 -23 -82 -53 -82 -12 0
-57 11 -100 25 -85 27 -128 31 -175 14 -29 -10 -36 -7 -119 53 -93 66 -210
175 -200 185 4 3 22 -6 42 -21 56 -43 154 -84 228 -96 128 -20 245 17 324 103
88 96 78 184 -43 373 -82 128 -101 203 -67 267 9 18 17 55 18 83 0 75 33 116
158 203 129 88 203 164 212 215 28 149 -101 305 -286 346 -57 13 -218 10 -251
-5 -10 -4 -18 -3 -18 3 0 17 97 52 232 82 l132 30 30 -29 c37 -34 76 -47 171
-56 39 -3 81 -13 93 -21 25 -16 26 -31 7 -106 -7 -25 -5 -28 20 -28 42 0 91
28 110 64 28 52 17 132 -24 168 -17 15 -31 30 -31 32 0 2 19 7 43 11 67 11
189 43 281 74 98 33 226 91 226 101 0 10 -128 68 -226 101 -92 31 -214 63
-281 74 -24 4 -43 9 -43 11 0 2 14 17 31 32 41 36 52 116 24 168 -19 36 -68
64 -110 64 -25 0 -27 -3 -20 -27 19 -76 18 -91 -7 -107 -12 -8 -54 -18 -93
-21 -95 -9 -134 -22 -171 -56 l-30 -29 -132 30 c-135 30 -232 65 -232 82 0 6
8 7 18 3 33 -15 194 -18 251 -5 185 41 314 197 286 346 -9 51 -83 126 -210
214 -125 86 -160 131 -160 204 -1 28 -9 65 -18 83 -34 64 -15 139 67 267 121
189 131 277 43 373 -79 86 -196 123 -324 103 -74 -12 -172 -53 -228 -96 -20
-15 -38 -24 -42 -21 -10 10 107 119 200 185 83 60 90 63 119 53 47 -17 90 -13
175 14 43 14 88 25 100 25 30 0 53 -36 53 -82 0 -43 0 -44 46 -22 61 29 81
101 47 171 -17 37 -65 73 -95 73 -32 0 -19 15 55 67 96 67 230 185 293 259 81
95 89 88 -97 81 -145 -6 -231 -17 -399 -53 l-35 -7 18 26 c21 33 22 98 2 138
-30 57 -102 83 -160 57 -29 -13 -31 -21 -9 -39 8 -7 22 -26 30 -42 14 -25 14
-31 0 -52 -9 -13 -46 -42 -83 -64 -83 -48 -111 -74 -129 -117 -15 -37 -26 -41
-169 -68 -121 -22 -180 -27 -206 -17 -21 7 -17 10 34 20 94 20 187 73 255 146
73 78 102 146 102 241 0 151 -67 202 -330 249 -52 10 -108 24 -125 32 -45 22
-93 72 -100 103 -3 15 -19 37 -35 49 -62 46 -77 113 -55 261 36 254 6 337
-143 385 -157 51 -355 -39 -459 -208 -22 -35 -39 -54 -41 -45 -5 26 34 115 99
230 l62 108 41 0 c46 0 68 13 136 75 74 67 97 80 125 67 14 -7 33 -28 42 -47
9 -19 22 -34 27 -32 19 6 56 69 56 95 0 74 -92 150 -164 137 l-36 -7 57 98
c31 54 73 137 94 185 41 94 92 249 85 256 -8 8 -177 -71 -262 -121 -43 -26
-116 -74 -162 -106 -46 -33 -86 -60 -88 -60 -3 0 -3 13 1 30 14 65 -50 139
-130 148 -38 4 -47 1 -81 -31 l-38 -35 47 -22 c68 -32 71 -57 18 -128 -60 -82
-94 -157 -87 -193 5 -27 0 -33 -82 -94 -93 -69 -216 -139 -234 -133 -6 2 13
22 42 43 65 50 132 138 161 213 35 86 33 207 -5 285 -31 65 -72 100 -134 117
-49 13 -95 8 -238 -26 -164 -39 -236 -31 -293 30 -14 14 -34 26 -45 26 -35 0
-83 36 -109 82 -14 24 -40 92 -57 153 -18 60 -42 130 -55 156 -27 52 -83 106
-120 115 -50 12 -159 -1 -210 -26 -111 -54 -206 -190 -227 -326 -15 -98 -20
-106 -31 -49 -7 34 -6 92 3 192 l13 143 43 25 c37 22 49 38 85 113 22 48 48
95 56 105 22 24 53 21 94 -8 l34 -26 13 32 c26 62 -10 132 -81 158 -41 16 -68
14 -111 -10 l-39 -21 6 64 c16 157 19 291 8 398 -7 63 -14 116 -17 119 -18 18
-195 -203 -289 -361 -32 -54 -61 -98 -64 -98 -3 0 -13 17 -22 38 -27 64 -121
92 -188 57 -23 -11 -61 -74 -61 -100 0 -2 23 -3 51 -3 80 2 91 -23 64 -137
-19 -79 -19 -136 1 -178 l17 -35 -58 -98 c-70 -121 -150 -223 -163 -210 -1 2
9 23 23 47 62 109 83 270 49 377 -34 104 -130 197 -216 208 -63 9 -140 -28
-273 -130 -123 -94 -179 -115 -246 -92 -26 9 -59 13 -80 10 -77 -13 -128 19
-244 151 -101 114 -121 132 -170 155 -147 71 -331 -76 -366 -292 -11 -68 -6
-133 17 -217 39 -138 -37 -8 -96 165 l-43 125 21 22 c33 35 42 72 42 170 0
124 12 142 86 133 53 -6 54 -6 54 19 0 92 -114 146 -198 95 -18 -11 -38 -31
-44 -45 -6 -14 -14 -25 -17 -25 -4 0 -22 46 -40 103 -51 156 -169 402 -202
423 -5 3 -16 -10 -23 -28z m59 -215 c6 9 15 17 18 17 12 0 117 -291 131 -365
5 -26 4 -28 -7 -11 -48 72 -72 99 -102 113 -34 16 -36 16 -61 -8 -15 -13 -40
-51 -56 -84 l-29 -60 5 95 c5 82 24 220 42 299 5 23 5 23 25 5 20 -18 21 -18
34 -1z m2544 -277 c9 3 21 8 27 10 12 6 9 -116 -7 -269 -14 -131 -24 -159 -33
-91 -9 65 -44 128 -74 132 -28 4 -107 -41 -128 -73 -9 -14 -20 -25 -25 -25
-15 0 53 126 131 245 68 102 74 108 83 87 7 -15 16 -21 26 -16z m-2470 -235
c39 -65 59 -89 109 -128 15 -11 47 -77 88 -178 36 -88 69 -170 74 -182 5 -13
6 -23 2 -23 -4 0 -68 54 -142 120 l-135 120 -28 -32 c-15 -18 -64 -84 -109
-145 -96 -134 -107 -141 -88 -58 5 22 20 107 35 189 22 125 30 153 50 171 30
28 58 84 79 158 9 31 18 57 21 57 2 0 22 -31 44 -69z m670 19 c40 -20 74 -65
85 -112 13 -58 -41 -128 -99 -128 -45 0 -85 57 -85 123 l-1 32 -29 -33 c-73
-80 0 -202 121 -202 33 0 47 6 73 33 18 17 35 39 38 47 9 25 18 6 25 -49 3
-30 14 -62 25 -74 19 -22 19 -22 13 33 -3 30 -8 71 -12 90 l-5 35 53 -57 c68
-71 133 -103 197 -94 28 4 60 1 89 -9 69 -24 153 1 228 66 42 37 43 31 10 -58
-13 -37 -22 -69 -20 -71 13 -14 36 15 56 67 21 58 39 79 39 46 0 -29 30 -75
60 -90 59 -31 136 -12 184 46 24 28 27 39 23 72 -3 22 -14 49 -25 59 -19 20
-19 20 -26 -15 -14 -73 -86 -116 -134 -80 -65 48 -66 119 -2 183 98 98 245 40
296 -117 24 -78 24 -228 -1 -298 -18 -52 -70 -135 -84 -135 -5 0 -11 23 -15
50 -8 62 -33 90 -80 90 -45 0 -49 -9 -30 -56 33 -79 -3 -159 -119 -265 l-62
-57 18 -36 c9 -20 23 -39 31 -42 8 -3 42 9 76 26 119 60 225 49 293 -30 32
-37 35 -39 55 -24 35 24 23 96 -22 133 -9 7 -13 17 -10 22 26 43 374 -69 374
-120 0 -4 -17 -13 -38 -19 -52 -16 -86 -53 -78 -86 6 -24 7 -24 85 -19 73 5
83 4 123 -20 47 -27 82 -71 119 -149 13 -27 27 -48 32 -48 13 0 76 31 82 40 2
4 -2 38 -10 76 -31 148 -12 244 60 293 19 13 35 27 35 31 0 14 -37 40 -66 45
-31 6 -62 -15 -96 -64 -15 -22 -18 -23 -24 -7 -15 39 4 147 37 214 46 94 155
203 227 227 66 21 123 14 169 -21 44 -34 63 -73 63 -132 0 -59 -24 -95 -74
-112 -79 -26 -133 42 -102 130 13 37 12 40 -4 40 -31 0 -79 -48 -86 -85 -8
-44 26 -116 68 -146 41 -30 99 -30 138 0 17 12 34 20 37 18 3 -3 -3 -31 -12
-62 -16 -55 -15 -85 3 -85 4 0 19 35 31 78 l24 77 17 -57 c32 -104 90 -170
160 -185 19 -3 45 -19 57 -34 13 -15 40 -33 60 -40 46 -15 132 -14 179 1 19 7
38 10 41 7 3 -3 -18 -30 -46 -60 -28 -30 -51 -57 -51 -60 0 -20 37 -1 76 38
24 25 45 45 47 45 3 0 4 -22 4 -50 -1 -42 4 -55 28 -80 82 -86 235 -48 235 58
0 21 -3 41 -6 45 -3 3 -21 -9 -39 -27 -39 -39 -72 -48 -113 -30 -34 14 -58 69
-47 106 26 84 151 126 226 75 75 -50 101 -131 80 -246 -24 -127 -114 -267
-202 -311 -53 -28 -60 -25 -43 15 7 19 14 50 14 69 0 37 -19 56 -67 71 -21 6
-23 3 -23 -27 -1 -98 -74 -167 -234 -218 l-67 -22 3 -47 3 -46 100 -6 c55 -3
112 -10 126 -16 44 -19 85 -60 103 -105 28 -67 32 -73 52 -70 40 8 47 23 41
93 l-6 67 36 -11 c66 -20 263 -214 263 -259 0 -2 -26 -2 -59 0 -50 4 -62 1
-80 -17 -39 -39 -24 -62 52 -75 48 -9 105 -59 130 -115 11 -25 21 -77 24 -123
l6 -79 50 3 49 3 23 91 c26 102 41 136 79 177 29 32 65 47 108 47 28 0 30 2
23 28 -15 63 -67 79 -138 43 l-37 -19 0 22 c0 11 13 44 30 72 89 156 333 258
464 195 74 -36 109 -114 86 -188 -25 -76 -83 -113 -144 -93 -70 23 -76 98 -13
167 l20 22 -26 6 c-60 15 -122 -48 -121 -124 1 -92 60 -148 145 -138 27 3 49
4 49 2 0 -2 -18 -25 -40 -50 -38 -44 -52 -85 -30 -85 6 0 10 3 10 8 0 4 23 32
50 62 l49 55 -6 -77 c-7 -95 8 -155 49 -197 17 -17 34 -31 38 -31 5 0 11 -13
15 -30 14 -66 91 -122 197 -144 l63 -14 -50 -21 c-108 -46 -112 -48 -91 -57
11 -4 37 0 65 10 87 34 85 34 62 -10 -27 -50 -26 -83 2 -124 64 -97 203 -97
231 -1 11 39 4 48 -26 27 -33 -24 -97 -21 -125 6 -29 27 -31 85 -3 120 66 85
214 51 256 -58 15 -40 16 -54 6 -101 -31 -148 -211 -307 -364 -320 -59 -6 -77
6 -40 26 9 5 27 27 40 49 l22 39 -23 34 c-25 37 -57 51 -57 25 0 -9 -16 -33
-35 -55 -48 -53 -98 -65 -234 -58 l-108 5 -11 -32 c-21 -56 -17 -62 59 -92
129 -51 190 -139 173 -250 l-6 -44 36 0 c42 0 65 27 73 90 3 22 9 40 12 40 31
0 140 -201 161 -297 16 -67 7 -76 -47 -47 -25 13 -54 24 -64 24 -19 0 -59 -33
-59 -48 0 -5 20 -22 43 -39 53 -37 87 -101 87 -164 0 -24 -12 -75 -25 -114
-14 -38 -25 -75 -25 -81 0 -7 19 -19 43 -29 l42 -17 20 28 c103 142 162 189
238 189 29 0 62 -4 75 -8 20 -8 22 -6 22 30 0 60 -17 76 -88 81 -56 4 -61 6
-52 23 14 25 91 77 142 95 200 70 413 14 449 -118 16 -62 4 -106 -46 -155 -36
-37 -48 -43 -84 -43 -34 0 -49 6 -72 29 -16 17 -29 40 -29 54 0 33 36 76 78
94 27 11 31 17 22 28 -18 22 -74 29 -106 13 -46 -22 -74 -73 -74 -135 0 -49 4
-59 34 -89 24 -24 43 -34 65 -34 46 0 38 -16 -25 -46 -51 -24 -74 -47 -61 -60
3 -3 33 9 67 26 34 17 66 30 71 28 5 -2 -2 -19 -15 -38 -30 -44 -56 -121 -56
-163 0 -18 9 -51 20 -72 12 -24 18 -50 15 -65 -13 -60 40 -153 117 -202 26
-17 48 -36 48 -41 0 -5 -32 -6 -80 -2 -57 5 -80 4 -80 -4 0 -17 45 -31 101
-31 27 0 49 -2 49 -4 0 -2 -18 -22 -40 -44 -30 -29 -40 -48 -40 -71 0 -89 86
-172 161 -156 25 6 79 49 79 64 0 3 -19 6 -43 6 -49 0 -92 24 -109 60 -17 38
18 96 69 114 37 13 45 13 87 -3 70 -27 101 -73 101 -151 0 -52 -5 -68 -28
-103 -60 -86 -194 -151 -330 -160 -122 -7 -230 32 -155 57 75 26 99 72 68 130
-10 20 -11 20 -51 -8 -22 -16 -56 -32 -77 -36 -49 -8 -146 22 -223 70 -58 36
-59 36 -83 18 -52 -39 -52 -50 2 -107 100 -105 121 -196 69 -290 -31 -55 -24
-76 23 -76 28 0 63 27 91 70 l16 25 17 -34 c26 -49 26 -293 0 -342 l-17 -34
-16 25 c-28 43 -63 70 -91 70 -47 0 -54 -21 -23 -76 52 -94 31 -185 -69 -290
-54 -57 -54 -68 -2 -107 24 -18 25 -18 83 18 77 48 174 78 223 70 21 -4 55
-20 77 -36 40 -28 41 -28 51 -8 31 58 7 104 -68 130 -75 25 33 64 155 57 136
-9 270 -74 330 -160 23 -35 28 -51 28 -103 0 -78 -31 -124 -101 -151 -42 -16
-50 -16 -87 -3 -51 18 -86 76 -69 115 18 38 70 66 115 60 20 -2 37 -1 37 4 0
16 -53 59 -79 65 -75 16 -161 -67 -161 -156 0 -23 10 -42 40 -71 22 -22 40
-42 40 -44 0 -2 -22 -4 -49 -4 -56 0 -101 -14 -101 -31 0 -8 23 -9 80 -4 48 4
80 3 80 -2 0 -5 -22 -24 -48 -41 -77 -49 -130 -142 -117 -202 3 -15 -3 -41
-15 -65 -11 -21 -20 -54 -20 -72 0 -42 26 -119 56 -163 13 -19 20 -36 15 -38
-5 -2 -37 11 -71 28 -34 17 -64 29 -67 26 -13 -13 10 -36 61 -60 63 -30 71
-46 25 -46 -22 0 -41 -10 -65 -34 -30 -30 -34 -40 -34 -89 0 -62 28 -113 74
-135 32 -16 88 -9 106 13 9 11 5 17 -22 28 -42 18 -78 61 -78 94 0 14 13 37
29 54 23 23 38 29 72 29 36 0 48 -6 84 -43 50 -49 62 -93 46 -155 -36 -132
-249 -188 -449 -118 -51 18 -128 70 -142 95 -9 17 -4 19 52 23 71 5 88 21 88
81 0 36 -2 38 -22 30 -13 -4 -46 -8 -75 -8 -76 0 -135 47 -238 189 l-20 28
-42 -17 c-24 -10 -43 -22 -43 -29 0 -6 11 -42 25 -81 13 -38 25 -90 25 -114 0
-63 -34 -127 -87 -164 -23 -17 -43 -34 -43 -39 0 -15 40 -48 59 -48 10 0 39
11 64 24 54 29 63 20 47 -48 -16 -71 -105 -250 -136 -275 l-29 -23 -7 42 c-11
64 -32 90 -72 90 l-33 0 1 -67 c1 -116 -49 -179 -184 -231 -64 -25 -68 -33
-48 -88 l11 -32 108 5 c136 7 186 -5 234 -58 19 -22 35 -46 35 -55 0 -26 32
-12 57 25 l23 34 -22 39 c-13 22 -31 44 -40 49 -37 20 -19 32 40 26 153 -13
333 -172 364 -320 10 -47 9 -61 -6 -101 -42 -109 -190 -143 -256 -58 -27 34
-26 89 2 119 25 27 93 32 124 8 29 -22 37 -18 30 17 -18 93 -130 111 -212 35
-46 -43 -54 -91 -25 -148 25 -47 27 -47 -60 -13 -28 10 -54 14 -65 10 -21 -9
-17 -11 91 -57 l50 -21 -63 -14 c-106 -22 -183 -78 -197 -144 -4 -17 -10 -30
-15 -30 -4 0 -21 -14 -38 -31 -41 -42 -56 -102 -49 -197 l6 -77 -49 55 c-27
30 -50 58 -50 63 0 4 -4 7 -10 7 -22 0 -8 -41 30 -85 22 -25 40 -48 40 -50 0
-2 -22 -1 -49 2 -85 10 -144 -46 -145 -138 -1 -76 61 -139 121 -124 l26 6 -20
22 c-63 69 -57 144 13 167 63 21 121 -18 145 -97 23 -78 -27 -167 -108 -194
-132 -43 -362 63 -443 205 -17 28 -30 61 -30 72 l0 22 37 -19 c71 -36 123 -20
138 44 7 25 5 27 -23 27 -43 0 -79 15 -108 47 -38 41 -53 75 -79 177 l-23 91
-49 3 -50 3 -6 -79 c-3 -46 -13 -98 -24 -123 -25 -56 -82 -106 -130 -115 -76
-13 -91 -36 -52 -75 18 -18 30 -21 80 -17 33 2 59 2 59 0 0 -45 -197 -239
-263 -259 l-36 -11 6 67 c6 70 -1 85 -41 93 -20 3 -24 -3 -52 -70 -18 -45 -59
-86 -103 -105 -14 -6 -71 -13 -126 -16 l-100 -6 -3 -46 -3 -47 67 -22 c160
-51 233 -120 234 -218 0 -30 2 -33 23 -27 48 15 67 34 67 71 0 19 -7 50 -14
69 -17 40 -10 43 43 15 105 -53 211 -241 211 -375 0 -116 -71 -205 -165 -205
-67 0 -133 43 -150 98 -11 37 13 92 47 106 41 18 74 9 113 -30 18 -18 36 -30
39 -27 3 4 6 24 6 45 0 106 -153 144 -235 58 -24 -25 -29 -38 -28 -80 0 -28
-1 -50 -4 -50 -2 0 -23 20 -47 45 -39 39 -76 58 -76 38 0 -3 23 -30 51 -60 28
-30 49 -57 46 -60 -3 -3 -22 0 -41 7 -47 15 -133 16 -179 1 -20 -7 -47 -25
-60 -40 -14 -17 -38 -31 -60 -35 -68 -13 -125 -79 -157 -184 l-17 -57 -24 78
c-12 42 -27 77 -31 77 -18 0 -19 -30 -3 -85 9 -31 15 -59 12 -62 -3 -2 -20 6
-37 18 -41 31 -95 31 -139 0 -43 -31 -75 -101 -67 -146 7 -37 56 -85 86 -85
16 0 17 3 4 40 -31 88 23 156 102 130 50 -17 74 -53 74 -112 0 -123 -107 -194
-232 -153 -72 24 -181 133 -227 227 -33 67 -52 175 -37 214 6 16 9 15 24 -7
34 -49 65 -70 96 -64 29 5 66 31 66 45 0 4 -16 18 -35 31 -72 49 -91 145 -60
293 8 38 12 72 10 76 -6 9 -69 40 -82 40 -5 0 -19 -21 -32 -47 -37 -79 -72
-123 -119 -150 -40 -24 -50 -25 -123 -20 -78 5 -79 5 -85 -19 -8 -33 26 -70
78 -86 21 -6 38 -15 38 -19 0 -51 -348 -163 -374 -120 -3 5 1 15 10 22 45 37
57 109 22 133 -20 15 -23 13 -55 -24 -68 -79 -174 -90 -293 -30 -34 17 -68 29
-76 26 -8 -3 -22 -22 -31 -42 l-18 -36 62 -57 c116 -106 152 -186 119 -265
-19 -47 -15 -56 30 -56 47 0 72 28 80 90 4 27 10 50 15 50 14 0 66 -83 84
-135 25 -70 25 -220 1 -298 -51 -157 -198 -215 -296 -117 -64 64 -63 135 2
183 48 36 120 -7 134 -80 7 -35 7 -35 26 -15 11 10 22 37 25 59 4 33 1 44 -23
72 -48 58 -125 77 -184 46 -30 -15 -60 -61 -60 -90 0 -33 -18 -12 -39 46 -20
52 -43 81 -56 67 -2 -2 7 -34 20 -71 33 -89 32 -95 -10 -58 -75 65 -159 90
-228 66 -29 -10 -61 -13 -89 -9 -64 9 -129 -23 -197 -94 l-53 -57 5 35 c4 19
9 60 12 90 6 55 6 55 -13 33 -11 -12 -22 -44 -25 -74 -7 -55 -16 -74 -25 -49
-3 8 -20 30 -38 48 -106 106 -296 -59 -194 -170 l29 -33 1 32 c1 97 70 150
137 106 77 -51 55 -176 -40 -224 -111 -57 -237 28 -293 197 -29 88 -26 242 5
307 27 54 37 58 46 19 3 -15 14 -42 25 -60 17 -27 26 -32 58 -32 54 0 66 16
40 53 -49 69 -28 179 57 292 25 33 45 64 45 69 0 6 -14 25 -31 43 l-32 32 -56
-43 c-68 -53 -86 -63 -140 -75 -52 -11 -115 2 -158 35 -40 30 -57 30 -70 1
-14 -31 5 -76 47 -109 l32 -25 -32 -13 c-22 -9 -58 -11 -133 -6 -126 9 -190
22 -219 45 l-22 18 25 13 c64 33 93 82 69 120 -8 13 -14 13 -42 1 -123 -49
-193 -29 -294 84 l-59 65 -38 -27 c-42 -30 -42 -26 -2 -121 58 -139 56 -223
-7 -286 l-30 -30 22 -18 c37 -30 74 -23 109 19 17 21 31 43 31 50 0 26 19 12
30 -23 17 -52 7 -177 -19 -246 -29 -76 -100 -171 -153 -204 -92 -58 -206 -35
-247 50 -36 72 -24 138 29 169 37 22 72 21 101 -2 21 -16 24 -28 24 -80 0 -64
7 -71 41 -43 49 39 56 88 21 145 -32 52 -72 77 -127 77 -38 0 -50 -6 -83 -37
l-40 -38 6 58 c6 61 -6 113 -23 102 -5 -3 -10 -34 -10 -68 0 -83 -12 -99 -34
-48 -38 83 -127 151 -197 151 -17 0 -45 10 -62 23 -48 34 -153 31 -227 -5 -30
-15 -56 -25 -59 -23 -2 3 15 34 39 70 24 36 40 68 37 71 -11 12 -46 -18 -71
-61 -32 -54 -46 -57 -46 -10 0 24 -9 44 -28 66 -24 27 -37 33 -84 37 -102 8
-169 -49 -154 -132 9 -47 22 -53 40 -17 42 80 127 96 161 30 24 -46 19 -94
-15 -132 -39 -45 -79 -61 -136 -54 -72 8 -131 64 -154 146 -25 92 -1 251 53
343 24 42 98 118 115 118 4 0 6 -28 4 -63 -4 -72 4 -84 64 -94 l37 -6 -6 47
c-5 32 -2 59 9 86 20 49 103 126 178 166 31 16 56 35 56 42 0 26 -29 82 -43
82 -8 0 -36 -7 -63 -15 -127 -39 -234 -2 -285 98 -22 42 -26 43 -57 21 -26
-18 -30 -74 -7 -114 20 -35 19 -40 -14 -40 -43 0 -229 99 -278 148 -43 43 -43
62 1 62 50 0 85 16 96 45 16 43 5 52 -69 57 -55 3 -75 9 -104 31 -46 35 -81
95 -101 170 -8 33 -17 61 -20 64 -3 3 -25 2 -48 -3 l-43 -9 -7 -108 c-5 -89
-11 -119 -34 -164 -23 -47 -34 -59 -75 -77 -27 -11 -49 -27 -49 -34 0 -17 49
-62 67 -62 17 0 72 27 95 47 22 20 28 4 17 -46 -21 -94 -82 -181 -174 -246
-131 -94 -238 -105 -320 -34 -66 58 -71 155 -10 216 87 87 200 -9 135 -115
-25 -40 -25 -42 1 -42 55 0 98 47 99 108 0 92 -58 158 -133 149 -23 -2 -53 -8
-65 -12 l-24 -8 27 52 c14 29 25 65 23 79 -3 24 -8 18 -43 -45 -22 -40 -43
-73 -47 -73 -5 0 -8 26 -8 58 0 90 -53 185 -117 209 -12 4 -32 24 -45 43 -37
54 -96 82 -192 89 l-81 6 62 43 c35 23 63 48 63 53 0 18 -47 1 -92 -31 -23
-17 -43 -28 -45 -26 -2 2 1 23 7 46 9 35 8 47 -7 78 -25 51 -91 85 -153 79
-57 -6 -100 -50 -100 -102 0 -40 3 -42 29 -16 11 11 38 25 61 32 36 11 44 10
67 -7 71 -54 38 -158 -57 -184 -60 -16 -104 -5 -149 38 -45 43 -66 104 -56
167 15 107 124 264 220 320 35 21 125 49 125 39 0 -1 -11 -24 -25 -50 -14 -26
-25 -55 -25 -65 0 -19 57 -72 73 -66 6 2 16 24 24 50 23 78 94 118 245 137 45
5 83 12 86 14 2 3 7 25 9 49 6 50 13 45 -92 63 -121 21 -204 105 -205 207 0
34 -2 37 -29 37 -40 0 -61 -32 -61 -92 0 -36 -4 -48 -15 -48 -22 0 -93 67
-121 116 -14 23 -32 48 -40 55 -22 18 -64 104 -64 130 0 16 4 19 18 14 9 -4
38 -10 64 -12 51 -6 72 4 81 37 4 17 -5 25 -50 46 -97 46 -137 143 -113 274
13 72 9 79 -48 87 l-40 5 -39 -83 c-65 -138 -129 -194 -216 -187 -49 3 -58
-13 -32 -61 19 -37 49 -46 105 -31 23 6 44 9 47 7 9 -10 -27 -64 -66 -100 -83
-75 -198 -117 -321 -117 -119 0 -184 41 -212 131 -34 116 91 234 180 170 56
-39 48 -102 -20 -155 l-32 -25 29 -11 c114 -43 196 138 104 230 -25 24 -39 30
-75 30 -24 0 -44 3 -44 8 0 4 23 26 50 50 43 37 64 72 44 72 -3 0 -35 -23 -70
-51 -35 -28 -64 -47 -64 -42 1 4 9 33 20 63 11 30 19 75 19 100 1 48 -25 116
-52 139 -10 7 -17 27 -17 43 0 64 -74 145 -162 176 -27 9 -48 20 -48 24 0 3
34 12 75 19 99 16 95 35 -6 31 l-74 -3 22 23 c50 53 52 114 6 169 -53 63 -129
78 -181 34 -16 -14 -32 -33 -35 -44 -4 -17 0 -18 53 -14 66 6 94 -5 107 -44
24 -69 -31 -133 -112 -133 -130 0 -197 142 -125 266 39 69 98 119 197 166 93
43 186 59 238 38 l30 -12 -25 -16 c-72 -48 -88 -94 -50 -142 l20 -25 32 37
c18 20 43 41 55 47 39 20 152 13 238 -14 44 -14 81 -25 82 -25 5 0 43 69 43
78 0 6 -21 25 -47 43 -121 81 -166 161 -142 255 23 87 23 83 -5 90 -36 9 -68
-14 -91 -65 -10 -23 -22 -41 -27 -41 -15 0 -46 62 -58 114 -6 28 -18 78 -26
112 -16 71 -18 103 -4 138 l9 25 32 -30 c48 -45 101 -52 123 -17 8 14 5 23
-16 45 -80 86 -78 196 6 320 14 21 26 43 26 50 0 7 -17 23 -37 36 l-38 24 -55
-49 c-116 -105 -207 -137 -282 -100 -23 12 -45 19 -50 16 -4 -3 -8 -25 -8 -49
0 -39 4 -46 28 -59 15 -8 45 -17 65 -21 36 -7 37 -8 22 -25 -9 -10 -40 -29
-68 -41 -43 -20 -69 -23 -157 -24 -166 0 -282 51 -330 146 -53 103 18 229 129
229 74 0 123 -71 91 -131 -13 -24 -61 -49 -95 -49 -34 0 -32 -16 8 -40 40 -25
74 -25 111 -1 94 62 97 196 5 238 -21 10 -39 21 -39 25 0 4 25 12 55 18 58 12
104 42 72 48 -8 2 -39 -4 -68 -12 -80 -24 -85 -20 -38 32 60 68 82 122 75 185
-7 64 -7 70 0 134 7 63 -15 117 -75 186 -47 51 -42 55 38 31 29 -8 60 -14 68
-12 32 6 -14 36 -72 48 -30 6 -55 14 -55 18 0 4 18 15 39 25 72 33 88 115 39
195 -37 60 -98 77 -155 42 -40 -24 -42 -40 -8 -40 91 0 136 -90 76 -151 -79
-78 -221 6 -221 132 0 77 73 154 180 191 94 33 253 32 327 -1 28 -12 59 -31
68 -41 15 -17 14 -18 -22 -25 -20 -4 -50 -13 -65 -21 -24 -13 -28 -20 -28 -59
0 -24 4 -46 8 -49 5 -3 27 4 50 16 75 37 166 5 282 -100 l55 -49 38 24 c20 13
37 29 37 36 0 7 -12 29 -26 50 -84 124 -86 234 -6 320 21 22 24 31 16 45 -22
35 -75 28 -123 -17 l-32 -30 -9 25 c-14 35 -12 67 4 138 8 34 20 84 26 112 12
52 43 114 58 114 5 0 17 -18 27 -41 23 -51 55 -74 91 -65 28 7 28 3 5 90 -24
94 21 174 142 255 26 18 47 37 47 43 0 9 -38 78 -43 78 -1 0 -38 -11 -82 -25
-86 -27 -199 -34 -238 -14 -12 6 -37 27 -55 47 l-32 37 -20 -25 c-38 -48 -22
-94 50 -142 l25 -16 -30 -12 c-51 -20 -148 -4 -240 39 -97 46 -156 96 -195
165 -72 124 -5 266 125 266 81 0 136 -64 112 -133 -13 -39 -41 -50 -107 -44
-53 4 -57 3 -53 -14 3 -11 19 -30 35 -44 49 -41 122 -30 175 27 50 53 52 114
6 169 l-26 30 73 -3 c100 -4 104 15 5 31 -41 7 -75 16 -75 19 0 4 21 15 48 24
88 31 162 112 162 176 0 16 7 36 17 43 27 23 53 91 52 139 0 25 -8 70 -19 100
-11 30 -19 59 -20 63 0 5 29 -14 64 -42 35 -28 67 -51 70 -51 20 0 -1 35 -44
72 -27 24 -50 46 -50 51 0 4 20 7 44 7 36 0 50 6 75 30 92 93 11 274 -104 230
l-29 -11 36 -29 c69 -57 71 -125 4 -156 -95 -46 -201 64 -168 175 28 90 93
131 212 131 123 0 238 -42 321 -117 39 -36 75 -90 66 -100 -3 -2 -24 1 -47 7
-56 15 -86 6 -105 -31 -26 -48 -17 -64 32 -61 87 7 151 -49 216 -187 l39 -83
40 5 c57 8 61 15 48 87 -24 131 16 228 113 274 45 21 54 29 50 46 -9 33 -30
43 -81 37 -26 -2 -55 -8 -64 -12 -14 -5 -18 -2 -18 14 0 26 42 112 64 130 8 7
26 32 40 55 28 49 99 116 121 116 11 0 15 -12 15 -48 0 -60 21 -92 61 -92 27
0 29 3 29 38 1 101 84 185 205 206 105 18 98 13 92 63 -2 24 -7 46 -9 49 -3 2
-41 9 -86 14 -151 19 -222 59 -245 137 -8 26 -18 48 -24 50 -16 6 -73 -47 -73
-66 0 -10 11 -39 25 -65 14 -26 25 -49 25 -50 0 -10 -90 18 -125 39 -113 65
-220 237 -219 350 0 71 19 113 71 152 28 21 47 28 82 28 91 0 144 -43 144
-117 0 -43 -22 -73 -59 -82 -28 -7 -114 26 -114 43 0 6 -4 11 -10 11 -22 0
-10 -70 18 -101 57 -64 185 -40 225 43 15 31 16 43 7 78 -6 23 -9 44 -7 46 2
2 22 -9 45 -26 45 -32 92 -49 92 -31 0 5 -28 30 -63 53 l-62 43 81 6 c96 7
155 35 192 89 13 19 33 39 45 43 64 24 117 119 117 210 0 31 3 57 8 57 4 0 25
-33 47 -73 35 -63 40 -69 43 -45 2 14 -9 50 -23 79 l-27 52 24 -8 c12 -4 42
-10 65 -12 75 -9 133 57 133 149 -1 61 -44 108 -99 108 -26 0 -26 -2 -1 -42
43 -71 9 -148 -66 -148 -75 0 -132 100 -104 184 14 44 68 92 117 105 148 41
381 -135 422 -320 11 -50 5 -66 -17 -46 -23 20 -78 47 -95 47 -18 0 -67 -45
-67 -62 0 -7 23 -23 51 -35 44 -19 53 -29 75 -78 21 -45 27 -78 32 -161 3 -58
8 -107 12 -109 4 -2 25 -7 48 -11 l41 -6 11 43 c41 163 107 230 225 230 60 0
73 14 53 57 -12 25 -26 31 -100 47 -36 7 -35 17 5 57 49 49 235 148 278 148
33 0 34 -5 14 -40 -23 -40 -19 -96 7 -114 31 -22 35 -21 57 22 51 99 158 136
285 97 27 -8 55 -15 63 -15 14 0 43 56 43 82 0 7 -25 26 -56 42 -75 40 -158
117 -178 166 -11 27 -14 54 -9 86 l6 47 -37 -6 c-60 -10 -68 -22 -64 -94 2
-35 0 -63 -4 -63 -17 0 -91 76 -115 118 -54 92 -78 251 -53 343 23 82 82 138
154 146 57 7 97 -9 136 -54 34 -38 39 -86 15 -132 -34 -66 -119 -50 -161 30
-18 36 -31 30 -40 -17 -15 -83 52 -140 154 -132 47 4 60 10 84 37 19 22 28 42
28 66 0 47 14 44 46 -10 25 -43 60 -73 71 -61 3 3 -13 35 -37 71 -24 36 -41
67 -39 70 3 2 29 -8 59 -23 74 -36 179 -39 227 -4 17 12 45 22 62 22 70 0 159
68 197 151 22 51 34 35 34 -48 0 -34 5 -65 10 -68 17 -11 29 41 23 102 l-6 58
41 -37 c35 -31 49 -38 85 -38 52 0 93 26 124 77 35 57 28 106 -21 145 -34 28
-41 21 -41 -43 0 -52 -3 -64 -24 -80 -29 -23 -64 -24 -101 -2 -53 31 -65 97
-30 168 42 87 155 110 248 52 53 -34 124 -129 153 -205 26 -69 36 -194 19
-246 -11 -35 -30 -49 -30 -23 0 7 -14 29 -31 50 -35 42 -72 49 -109 19 l-22
-18 30 -30 c63 -63 65 -147 7 -286 -39 -92 -39 -90 2 -121 l38 -28 59 66 c101
113 171 133 294 84 28 -12 34 -12 42 1 24 38 -5 87 -69 120 l-25 13 22 18 c29
23 93 36 219 45 75 5 111 3 133 -6 l32 -13 -32 -25 c-42 -33 -61 -78 -47 -109
13 -29 30 -29 70 1 59 46 148 52 217 16 14 -7 50 -32 81 -56 l56 -43 34 35
c38 39 41 25 -34 139 -71 106 -85 198 -39 263 26 36 14 52 -40 52 -32 0 -41
-5 -58 -32 -11 -18 -22 -45 -25 -60 -4 -15 -10 -28 -14 -28 -4 0 -17 21 -30
47 -46 94 -38 248 19 368 63 132 170 186 269 135z m1682 -357 c6 -28 19 -62
29 -75 17 -22 18 -39 13 -227 -5 -161 -9 -200 -18 -189 -7 7 -43 82 -81 166
-37 83 -71 152 -76 152 -13 0 -60 -25 -191 -102 -64 -38 -121 -68 -126 -66 -5
2 40 76 100 165 97 143 114 164 153 181 40 18 136 108 161 150 7 13 11 4 18
-43 4 -33 12 -83 18 -112z m-4635 -142 c30 -36 52 -66 50 -68 -2 -2 -20 7 -40
21 -48 32 -101 49 -131 42 -30 -8 -45 -51 -46 -135 l0 -66 -21 45 c-22 51 -85
263 -94 320 -6 36 -5 37 19 33 19 -4 25 0 30 19 6 21 13 17 93 -62 47 -47 110
-114 140 -149z m2391 40 c105 -85 163 -141 146 -141 -6 0 -26 6 -45 14 -19 8
-69 24 -112 35 l-78 20 -71 -35 c-39 -20 -88 -47 -110 -61 -21 -13 -41 -23
-43 -20 -9 8 192 267 207 267 4 0 52 -36 106 -79z m12 -141 c41 -12 86 -27
100 -35 23 -12 16 -13 -69 -8 -99 6 -225 -12 -297 -42 -58 -25 -35 0 40 42
110 62 111 62 132 63 11 0 54 -9 94 -20z m2152 -154 c38 -79 69 -149 69 -157
0 -7 -21 7 -47 32 -27 25 -70 63 -96 84 l-48 38 -132 -6 -132 -7 35 22 c67 41
255 138 268 138 7 0 45 -65 83 -144z m-4529 33 c64 -50 119 -79 153 -79 19 0
63 -36 176 -142 83 -78 147 -144 142 -145 -4 -2 -84 21 -178 51 -150 47 -171
52 -178 37 -4 -9 -23 -87 -41 -174 -31 -144 -41 -178 -49 -166 -1 2 -23 89
-49 192 -45 187 -46 189 -30 237 13 40 14 66 6 140 -5 49 -8 90 -6 90 1 0 26
-18 54 -41z m4437 -113 c25 -19 66 -55 91 -81 l45 -46 -75 39 c-96 51 -186 81
-273 89 -113 10 -61 28 92 31 69 2 76 0 120 -32z m2527 -236 c24 0 23 -2 -32
-112 -56 -112 -142 -254 -149 -246 -2 2 3 29 12 60 20 72 12 125 -23 140 -25
12 -81 2 -159 -26 -40 -15 62 68 185 150 124 82 125 83 133 58 6 -16 16 -24
33 -24z m-6670 -20 c102 -28 127 -36 179 -56 13 -4 -22 -13 -103 -25 -68 -10
-131 -24 -139 -30 -8 -7 -44 -53 -80 -101 -36 -49 -68 -87 -70 -84 -5 4 36
179 62 274 9 28 21 52 29 52 7 0 62 -14 122 -30z m199 -118 c-6 -5 -30 -14
-55 -21 -75 -22 -176 -78 -245 -136 -36 -31 -65 -51 -65 -46 0 6 28 47 63 93
68 89 74 93 192 107 98 12 121 12 110 3z m6155 -189 c0 -5 -12 -42 -26 -83
-20 -57 -24 -87 -21 -127 5 -50 1 -62 -82 -235 -99 -205 -99 -204 -99 -23 -1
61 -1 134 -1 163 l-1 52 -44 0 c-24 0 -106 -7 -181 -15 -120 -14 -160 -14
-144 -2 2 2 51 32 109 67 58 35 131 81 162 102 48 32 65 38 110 38 38 0 74 10
128 34 82 37 90 40 90 29z m-287 -320 c3 -5 8 -81 12 -170 6 -119 4 -163 -4
-163 -6 0 -11 5 -11 11 0 6 -22 57 -49 113 l-49 101 -68 26 c-38 15 -89 33
-114 40 -69 19 -68 27 1 33 35 3 78 8 94 9 60 7 184 7 188 0z m-281 -87 c103
-30 143 -52 166 -91 27 -44 84 -177 79 -181 -2 -2 -21 21 -42 52 -49 71 -136
149 -220 198 -59 35 -84 55 -52 43 6 -2 38 -12 69 -21z m-8152 -211 c110 -41
270 -115 270 -125 0 -4 -22 -3 -49 3 -58 11 -114 3 -137 -20 -22 -23 -12 -92
21 -150 14 -24 21 -43 16 -43 -11 0 -151 155 -224 248 l-48 61 26 7 c22 5 26
11 22 30 -2 13 -1 24 2 24 3 0 49 -16 101 -35z m363 -286 c50 -9 80 -9 114 -2
42 10 54 8 172 -37 69 -26 152 -56 184 -66 31 -10 57 -21 57 -25 0 -8 -47 -15
-185 -29 -55 -5 -117 -13 -139 -16 l-38 -6 7 -52 c3 -28 15 -87 25 -131 24
-104 36 -193 23 -180 -6 6 -37 46 -70 90 -33 44 -86 112 -117 150 -46 58 -56
77 -56 109 0 38 -40 130 -83 190 l-20 29 29 -6 c16 -3 60 -11 97 -18z m567
-186 c0 -5 -45 -35 -101 -68 -55 -32 -104 -66 -109 -75 -6 -13 -38 -136 -56
-219 -3 -13 -7 -21 -10 -18 -9 8 -53 258 -54 298 0 30 4 38 23 42 26 7 217 35
267 40 19 2 36 5 38 5 1 1 2 -1 2 -5z m-47 -126 c-63 -66 -90 -103 -124 -175
-24 -50 -47 -91 -50 -91 -8 -1 14 118 32 178 6 22 22 49 33 60 19 18 174 111
185 111 2 0 -32 -38 -76 -83z m9637 -507 c-9 -16 -6 -21 16 -33 l26 -14 -103
-83 c-110 -89 -219 -163 -227 -155 -3 2 10 21 27 41 37 41 51 73 51 114 0 35
-45 59 -127 67 -32 4 -49 9 -42 13 31 17 287 67 352 69 34 1 37 -1 27 -19z
m-628 -172 c36 -19 59 -23 136 -23 50 0 92 -1 92 -3 0 -2 -27 -35 -60 -73 -40
-46 -64 -85 -72 -115 -9 -32 -23 -53 -48 -72 -19 -15 -87 -71 -150 -126 -73
-63 -116 -93 -118 -84 -1 8 16 55 39 104 23 49 54 120 70 157 l28 68 -27 11
c-15 5 -81 28 -147 50 -156 51 -176 59 -169 69 3 5 22 9 42 10 29 0 331 43
339 48 1 0 22 -9 45 -21z m-431 -99 c60 -19 269 -101 269 -104 0 -12 -92 -239
-112 -276 l-23 -44 -5 134 -5 134 -90 83 c-91 85 -95 93 -34 73z m8 -106 l81
-78 -1 -120 c-1 -96 -3 -113 -11 -85 -41 150 -65 207 -114 280 -29 44 -49 80
-44 80 4 0 45 -35 89 -77z m-10241 -821 c8 -6 -8 -14 -46 -25 -69 -19 -116
-59 -106 -91 10 -33 42 -74 80 -102 19 -15 33 -29 31 -31 -11 -10 -271 106
-344 155 -23 15 -23 15 -3 29 18 13 19 16 4 38 l-16 24 69 4 c142 7 318 6 331
-1z m698 -20 c-3 -5 -42 -30 -88 -57 -158 -92 -218 -130 -218 -138 0 -9 36
-62 143 -211 31 -43 57 -83 57 -88 0 -5 -25 4 -55 21 -31 18 -112 61 -180 97
-81 43 -126 72 -131 86 -10 31 -70 93 -125 128 -27 18 -49 36 -49 40 0 4 30
13 67 20 78 13 129 33 159 61 18 17 46 22 190 33 219 17 236 18 230 8z m53
-51 c-8 -10 -40 -58 -72 -105 l-59 -86 11 -67 c6 -38 17 -94 25 -125 14 -61
12 -69 -11 -40 -27 34 -173 255 -173 262 0 9 51 43 180 122 100 61 121 70 99
39z m26 -80 c-40 -96 -55 -168 -55 -265 0 -106 -12 -104 -34 6 -23 110 -21
146 10 193 44 65 98 135 101 131 3 -2 -7 -31 -22 -65z m10210 -981 c163 -47
174 -52 216 -93 29 -29 68 -54 116 -73 40 -16 73 -31 73 -34 0 -3 -33 -18 -72
-34 -45 -18 -90 -46 -120 -74 -44 -41 -59 -48 -210 -91 -90 -26 -173 -51 -185
-55 -45 -14 -21 13 107 129 72 64 130 120 130 125 0 5 -58 61 -130 125 -121
109 -153 146 -114 131 9 -4 94 -29 189 -56z m-117 -105 c45 -44 82 -87 82 -96
0 -17 -229 -243 -238 -234 -2 2 15 48 39 102 24 55 43 113 43 133 0 19 -19 77
-42 130 -23 52 -42 99 -42 104 0 11 35 -20 158 -139z m-148 3 c17 -42 30 -87
30 -98 0 -27 -56 -171 -76 -196 -15 -18 -15 -18 -9 6 3 14 11 62 17 108 11 78
4 181 -17 272 -12 50 23 -9 55 -92z m923 -3 c51 -12 118 -30 150 -40 57 -16
58 -17 41 -36 -16 -18 -16 -20 0 -38 17 -19 16 -20 -41 -36 -224 -66 -424 -98
-308 -50 56 24 105 73 105 105 0 32 -52 83 -107 106 -18 8 -33 17 -33 20 0 9
92 -6 193 -31z m-11086 -967 c-20 -29 -65 -93 -101 -143 -36 -49 -66 -95 -66
-100 0 -10 55 -45 218 -140 78 -46 104 -65 85 -65 -4 0 -95 7 -202 15 -167 13
-198 18 -215 34 -30 28 -82 48 -159 61 -37 7 -67 16 -67 20 0 4 22 22 49 40
55 35 115 97 125 128 5 14 52 45 139 90 73 39 152 81 177 96 24 14 46 23 49
21 2 -3 -12 -28 -32 -57z m97 -5 c-8 -32 -19 -88 -25 -125 l-10 -67 37 -58
c20 -32 52 -78 71 -102 18 -24 31 -46 29 -49 -10 -9 -286 164 -286 179 0 6
123 193 175 265 19 27 22 13 9 -43z m94 -233 c11 -30 27 -72 36 -92 32 -75 12
-57 -69 62 -34 49 -45 74 -45 103 0 41 27 185 38 202 4 5 10 -42 13 -105 5
-76 14 -133 27 -170z m-829 -10 c-59 -50 -85 -101 -67 -130 15 -23 76 -55 127
-65 24 -5 30 -10 20 -16 -17 -10 -164 -12 -302 -2 l-97 6 15 23 c14 21 13 24
-5 37 -20 14 -20 14 3 29 66 44 311 156 342 157 6 1 -11 -17 -36 -39z m10401
-837 l0 -118 -81 -77 c-44 -43 -85 -78 -90 -78 -5 0 13 33 40 73 54 80 93 172
111 260 6 31 13 57 16 57 2 0 4 -53 4 -117z m71 76 c18 -37 109 -264 109 -274
0 -8 -292 -115 -314 -115 -6 0 31 39 82 88 l92 87 0 128 c0 70 2 127 5 127 2
0 14 -19 26 -41z m179 -74 c58 -50 121 -103 140 -117 25 -19 39 -40 48 -72 8
-30 32 -69 72 -115 33 -38 60 -71 60 -73 0 -2 -42 -3 -93 -3 -74 -1 -101 -5
-132 -21 l-40 -21 -175 24 c-225 31 -229 32 -208 44 9 5 77 29 150 53 73 24
145 48 160 54 l27 11 -28 68 c-16 37 -47 108 -70 156 -42 92 -51 124 -28 110
6 -4 59 -48 117 -98z m519 -338 c25 -17 89 -66 144 -110 l99 -80 -26 -14 c-22
-12 -25 -17 -16 -33 9 -18 7 -20 -17 -20 -59 1 -330 53 -362 70 -7 4 10 9 42
13 31 3 72 13 91 22 29 14 36 23 36 47 0 38 -24 89 -56 119 -13 12 -24 26 -24
31 0 11 30 -5 89 -45z m-9560 -569 c34 -72 61 -110 125 -176 l81 -85 -73 39
c-102 54 -136 85 -151 134 -18 61 -40 180 -32 179 3 0 26 -41 50 -91z m-69
-48 c12 -52 26 -102 30 -110 5 -9 54 -43 109 -75 100 -59 101 -60 65 -63 -32
-3 -209 20 -271 35 -18 4 -23 12 -23 37 0 31 19 151 41 256 14 65 17 60 49
-80z m-109 28 c-5 -29 -19 -96 -30 -148 -12 -52 -21 -105 -21 -117 0 -24 11
-27 175 -43 138 -14 185 -21 185 -29 0 -4 -26 -15 -57 -25 -32 -10 -115 -40
-184 -66 -118 -45 -130 -47 -172 -37 -44 10 -58 9 -211 -20 l-29 -6 20 29 c43
60 83 152 83 190 0 33 11 53 76 134 42 52 97 124 122 158 51 69 59 66 43 -20z
m-476 -461 c-33 -58 -43 -127 -21 -150 23 -23 79 -31 137 -20 27 6 49 7 49 3
0 -14 -338 -160 -371 -160 -3 0 -4 11 -2 24 4 19 0 25 -22 30 l-26 7 48 61
c73 93 213 248 224 248 5 0 -2 -19 -16 -43z m8265 -305 c-39 -92 -68 -140 -91
-152 -27 -15 -201 -71 -206 -67 -2 2 26 21 62 43 84 49 171 127 220 198 21 31
40 54 42 52 2 -1 -10 -35 -27 -74z m75 -114 c-4 -90 -9 -167 -12 -172 -4 -5
-63 -6 -137 -2 -142 8 -220 19 -196 29 8 3 49 17 90 30 147 49 137 41 191 153
27 56 49 107 49 113 0 6 5 11 11 11 8 0 10 -44 4 -162z m228 -278 c-4 -37 1
-67 21 -130 15 -45 26 -84 24 -86 -2 -2 -40 12 -84 31 -57 25 -94 35 -132 35
-45 0 -62 6 -110 38 -31 21 -104 67 -162 102 -58 35 -107 65 -109 67 -16 12
24 12 144 -2 75 -8 157 -15 181 -15 l44 0 1 53 c0 28 0 102 1 162 0 182 0 183
99 -23 83 -172 88 -186 82 -232z m231 -247 c24 -38 69 -119 100 -180 55 -111
56 -113 32 -113 -17 0 -27 -8 -33 -24 -8 -25 -9 -24 -133 58 -123 82 -225 165
-185 150 129 -47 179 -41 191 21 6 31 -4 92 -22 139 -14 35 9 13 50 -51z
m-6507 -87 c38 -18 88 -39 113 -47 74 -21 70 -30 -10 -23 -157 15 -166 19
-237 112 -35 45 -63 87 -63 93 0 5 29 -15 65 -46 36 -30 95 -70 132 -89z
m-201 62 c96 -134 109 -145 177 -156 34 -6 91 -14 125 -17 35 -4 60 -10 55
-15 -9 -8 -111 -40 -231 -72 -71 -18 -85 -20 -92 -7 -8 13 -80 293 -80 312 0
15 9 6 46 -45z m-82 -15 c3 -10 19 -85 36 -168 18 -82 35 -155 38 -161 5 -8
60 5 177 42 94 30 174 53 178 51 5 -1 -59 -67 -142 -145 -113 -106 -157 -142
-176 -142 -34 0 -89 -29 -153 -79 -28 -23 -53 -41 -54 -41 -2 0 1 41 6 90 8
74 7 100 -6 139 -15 49 -15 51 31 240 25 105 49 191 53 191 4 0 9 -8 12 -17z
m4486 -409 c-25 -25 -67 -62 -93 -81 l-49 -36 -98 6 c-126 7 -158 21 -65 30
88 8 185 40 271 87 38 21 71 39 74 39 2 1 -16 -20 -40 -45z m1 -159 c-38 -80
-75 -145 -82 -145 -12 0 -203 98 -270 139 l-34 21 132 -7 131 -6 64 51 c35 27
76 64 93 82 16 17 31 26 33 21 2 -6 -28 -76 -67 -156z m110 -321 c-23 -29 -38
-89 -46 -177 l-7 -68 -41 48 c-65 74 -89 94 -134 115 -37 16 -57 40 -152 181
-60 89 -105 163 -100 165 5 2 62 -28 126 -66 131 -77 178 -102 191 -102 5 0
39 69 77 153 37 83 73 158 79 166 8 11 13 -36 18 -189 6 -186 5 -206 -11 -226z
m-4816 93 c16 -39 88 -30 161 19 20 14 38 23 40 21 7 -6 -101 -130 -190 -217
-80 -79 -87 -83 -93 -62 -4 19 -11 23 -29 19 -17 -3 -24 0 -24 12 0 27 58 236
88 313 l27 73 6 -80 c3 -44 9 -88 14 -98z m2405 127 c60 -12 112 -15 180 -12
l95 6 -40 -19 c-22 -10 -72 -26 -112 -35 -82 -20 -79 -20 -200 48 -75 43 -98
67 -40 43 18 -7 71 -21 117 -31z m-132 -28 c21 -13 70 -40 109 -60 l71 -35 78
20 c43 11 93 27 112 35 52 21 59 17 26 -17 -37 -39 -222 -189 -233 -189 -9 0
-161 188 -193 239 -24 37 -19 38 30 7z m20 -158 c45 -62 94 -128 109 -146 l28
-32 135 120 c74 66 138 120 142 120 4 0 3 -10 -2 -22 -5 -13 -38 -95 -74 -183
-41 -101 -73 -167 -88 -178 -50 -39 -70 -63 -109 -128 -22 -38 -42 -69 -44
-69 -3 0 -12 26 -21 58 -21 73 -49 129 -79 157 -20 18 -28 46 -50 171 -15 82
-30 167 -35 189 -19 83 -8 76 88 -57z m2631 -425 c16 -153 19 -275 7 -269 -6
2 -18 7 -27 10 -10 5 -19 -1 -26 -16 -9 -21 -15 -15 -83 87 -78 119 -146 245
-131 245 5 0 16 -11 25 -25 21 -32 100 -77 128 -73 30 4 65 67 74 132 9 68 19
40 33 -91z m-2585 -282 c25 -24 27 -24 61 -8 30 14 54 41 102 113 11 17 12 15
7 -11 -14 -74 -119 -365 -131 -365 -3 0 -12 8 -18 17 -13 17 -14 17 -34 -1
-20 -18 -20 -18 -25 5 -18 79 -37 217 -42 299 l-5 95 29 -60 c16 -33 41 -71
56 -84z"/>
<path d="M6517 11632 c-22 -24 -21 -65 1 -85 25 -23 85 -22 105 1 23 25 21 35
-9 71 -30 36 -72 41 -97 13z"/>
<path d="M7072 11584 c-7 -3 -19 -18 -27 -34 -13 -26 -13 -30 6 -54 22 -28 53
-33 93 -14 33 14 41 40 24 75 -10 22 -21 28 -48 30 -19 1 -41 -1 -48 -3z"/>
<path d="M6593 11500 c-47 -19 -47 -62 1 -102 27 -23 49 -22 69 0 24 26 21 59
-8 87 -26 27 -30 28 -62 15z"/>
<path d="M4900 11448 c-11 -18 -20 -39 -20 -45 0 -20 38 -53 59 -53 26 0 81
47 81 69 0 34 -29 61 -66 61 -28 0 -38 -6 -54 -32z"/>
<path d="M6981 11434 c-25 -32 -26 -43 -5 -72 19 -27 39 -28 82 -2 35 22 40
44 16 78 -22 31 -67 29 -93 -4z"/>
<path d="M6632 11358 c-26 -26 -11 -73 31 -95 29 -15 32 -14 49 7 22 27 23 63
2 84 -18 19 -65 21 -82 4z"/>
<path d="M6388 11348 c-16 -5 -28 -13 -28 -18 0 -10 25 -20 50 -20 38 0 53
-76 26 -129 -22 -42 -79 -87 -119 -95 -45 -8 -87 8 -87 33 0 11 -5 32 -11 48
-10 26 -12 27 -19 8 -5 -11 -9 -42 -9 -69 -1 -44 3 -53 38 -86 69 -66 143 -60
217 18 56 58 94 134 101 204 5 48 3 57 -22 86 -23 27 -33 32 -68 31 -23 0 -54
-5 -69 -11z"/>
<path d="M6930 11343 c-23 -8 -40 -34 -40 -63 0 -52 50 -67 88 -27 28 30 28
62 0 81 -24 17 -25 17 -48 9z"/>
<path d="M4890 11308 c-25 -27 -26 -70 -2 -91 27 -25 47 -21 76 14 32 37 33
63 4 83 -31 22 -54 20 -78 -6z"/>
<path d="M4386 11294 c-9 -8 -16 -19 -16 -24 0 -5 -3 -15 -6 -23 -8 -23 31
-57 66 -57 31 0 80 37 80 60 0 6 -11 22 -25 35 -28 29 -76 33 -99 9z"/>
<path d="M7105 11279 c-70 -34 -71 -185 -2 -300 54 -90 121 -119 200 -85 51
21 70 50 75 112 5 65 -13 73 -32 14 -10 -32 -15 -35 -53 -38 -34 -3 -47 2 -78
29 -20 18 -43 45 -51 60 -32 62 -7 168 37 154 10 -4 28 -3 40 0 16 5 18 9 8
21 -16 19 -75 44 -103 43 -11 0 -30 -5 -41 -10z"/>
<path d="M5059 11191 c-37 -38 -37 -69 0 -146 30 -62 68 -104 135 -149 30 -20
51 -26 94 -26 51 0 58 3 94 40 21 23 38 51 39 63 2 42 -3 72 -18 101 -19 36
-34 19 -26 -29 10 -62 -70 -85 -154 -44 -52 25 -83 66 -90 119 -5 37 -4 39 36
60 23 11 39 25 36 30 -4 6 -31 10 -61 10 -48 0 -60 -4 -85 -29z"/>
<path d="M4498 11183 c-38 -44 -26 -77 33 -93 50 -14 69 -1 69 46 0 55 -68 86
-102 47z"/>
<path d="M4867 11172 c-32 -35 -14 -102 27 -102 31 0 56 30 56 68 0 48 -51 69
-83 34z"/>
<path d="M5786 11128 c-11 -42 -6 -110 10 -145 21 -44 34 -28 34 45 0 46 -21
122 -33 122 -3 0 -7 -10 -11 -22z"/>
<path d="M6560 11100 c0 -24 76 -91 141 -125 l72 -38 59 17 c103 29 178 75
178 110 0 4 -16 0 -35 -8 -64 -27 -187 -58 -209 -52 -11 3 -60 28 -109 56 -94
54 -97 55 -97 40z"/>
<path d="M4594 11075 c-15 -23 -15 -27 0 -50 31 -47 97 -44 104 4 9 62 -70 97
-104 46z"/>
<path d="M8599 11069 c-24 -24 -18 -54 17 -86 31 -28 58 -29 84 -3 26 26 25
51 -1 84 -25 32 -70 35 -100 5z"/>
<path d="M6507 11028 c-8 -22 17 -69 72 -132 54 -64 112 -166 140 -249 l18
-52 18 35 c30 59 103 147 162 197 94 80 133 120 133 137 0 9 -4 16 -9 16 -21
0 -170 -121 -229 -185 -34 -37 -64 -66 -65 -64 -2 2 -19 30 -37 62 -34 62
-130 186 -172 225 -19 17 -27 20 -31 10z"/>
<path d="M4409 10990 c-47 -25 -66 -47 -51 -62 7 -7 19 -7 40 0 26 9 33 7 52
-13 71 -75 0 -245 -102 -245 -20 0 -32 8 -43 30 -9 17 -22 30 -30 30 -12 0
-12 -6 0 -45 16 -56 31 -74 72 -92 42 -17 87 -17 123 2 110 57 137 330 39 399
-30 21 -55 20 -100 -4z"/>
<path d="M5966 10966 c-33 -32 -33 -56 0 -95 19 -23 34 -31 60 -31 78 0 72
127 -8 146 -21 4 -33 0 -52 -20z"/>
<path d="M6121 10934 c-26 -33 -27 -60 -2 -74 40 -21 111 -5 111 24 0 17 -59
76 -76 76 -7 0 -22 -12 -33 -26z"/>
<path d="M4960 10874 l-84 -74 -71 1 c-38 0 -94 4 -122 8 -56 8 -64 3 -35 -21
26 -23 79 -38 159 -45 72 -6 72 -6 122 33 61 46 110 104 121 144 5 17 6 30 2
29 -4 0 -45 -34 -92 -75z"/>
<path d="M5586 10919 c-33 -38 -33 -73 -1 -104 32 -32 50 -31 86 4 36 36 39
81 7 111 -31 29 -62 25 -92 -11z"/>
<path d="M6691 10923 c15 -39 57 -93 73 -93 15 0 96 84 96 100 0 13 -10 12
-40 -5 -35 -20 -63 -18 -93 5 -36 29 -49 26 -36 -7z"/>
<path d="M7745 10916 c-36 -54 -59 -156 -36 -156 32 0 82 133 62 167 -7 14
-11 12 -26 -11z"/>
<path d="M8614 10930 c-31 -12 -34 -32 -14 -78 15 -32 25 -42 43 -42 52 0 76
71 37 110 -22 22 -33 23 -66 10z"/>
<path d="M6267 10905 c-16 -23 -16 -27 -2 -55 15 -29 24 -34 55 -30 19 2 40
29 40 52 0 23 -35 58 -57 58 -10 0 -26 -12 -36 -25z"/>
<path d="M5785 10895 c-5 -2 -22 -6 -37 -9 -16 -4 -28 -13 -28 -21 0 -17 43
-30 61 -19 7 4 43 10 78 13 52 5 66 10 69 24 3 15 -5 17 -65 16 -37 0 -72 -2
-78 -4z"/>
<path d="M5070 10820 c-47 -78 -83 -161 -101 -232 -7 -27 -16 -48 -20 -48 -3
0 -24 14 -45 31 -54 43 -143 94 -225 129 -62 26 -69 27 -69 11 0 -25 24 -44
102 -81 80 -37 172 -103 232 -166 l44 -45 7 53 c10 75 59 219 100 293 34 61
44 108 26 120 -6 3 -29 -26 -51 -65z"/>
<path d="M5455 10859 c-14 -18 -25 -41 -23 -53 6 -45 118 -23 118 24 0 17 -43
60 -60 60 -5 0 -20 -14 -35 -31z"/>
<path d="M8360 10872 c0 -6 14 -21 31 -33 27 -19 30 -26 25 -53 -18 -91 -152
-146 -233 -96 -37 22 -38 24 -22 69 19 55 -5 61 -35 9 -31 -54 -33 -86 -5
-139 25 -50 92 -84 142 -73 93 20 204 103 238 179 25 54 24 69 -9 106 -23 26
-38 33 -80 37 -33 3 -52 1 -52 -6z"/>
<path d="M5316 10808 c-23 -32 -20 -54 11 -77 23 -19 29 -20 47 -8 27 18 32
63 10 88 -23 25 -49 24 -68 -3z"/>
<path d="M7177 10812 c-22 -25 -21 -55 2 -76 24 -22 55 -14 77 20 15 22 15 26
0 49 -20 30 -56 33 -79 7z"/>
<path d="M7334 10811 c-18 -11 -35 -24 -38 -29 -20 -33 50 -71 98 -53 30 12
33 29 11 71 -18 35 -29 37 -71 11z"/>
<path d="M7465 10807 c-21 -17 -27 -32 -27 -62 0 -68 61 -88 113 -36 34 35 38
72 9 101 -26 26 -63 25 -95 -3z"/>
<path d="M5780 10773 c-38 -59 -42 -135 -9 -177 17 -22 29 -26 68 -26 92 0
132 65 93 152 -21 49 -73 98 -103 98 -12 0 -30 -17 -49 -47z"/>
<path d="M9091 10807 c-39 -20 -47 -41 -27 -71 23 -37 61 -50 94 -34 36 17 42
68 13 97 -24 24 -46 26 -80 8z"/>
<path d="M8602 10778 c-18 -18 -14 -62 8 -86 26 -28 35 -28 65 3 29 28 31 42
9 73 -17 24 -62 30 -82 10z"/>
<path d="M4924 10739 c-27 -28 -33 -30 -77 -24 -64 8 -59 -9 13 -52 62 -38 71
-35 94 34 28 81 19 93 -30 42z"/>
<path d="M8952 10710 c-41 -38 -21 -90 34 -90 69 0 94 37 58 88 -19 28 -63 29
-92 2z"/>
<path d="M7580 10713 c0 -18 36 -43 63 -43 15 0 46 -10 71 -21 44 -22 81 -20
74 4 -10 29 -208 86 -208 60z"/>
<path d="M6271 10693 c-55 -20 -116 -80 -147 -146 -31 -68 -33 -172 -4 -249
25 -68 95 -138 175 -175 75 -35 178 -39 238 -9 20 10 37 22 37 27 0 5 -44 9
-99 9 -112 0 -163 14 -221 60 -56 44 -100 137 -100 211 0 73 10 98 61 153 45
50 90 69 156 68 92 -2 188 -91 188 -174 0 -57 -47 -98 -110 -98 -64 0 -88 26
-83 91 2 30 -1 49 -8 49 -13 0 -47 -37 -64 -69 -30 -58 27 -140 112 -161 43
-11 52 -10 95 11 67 33 93 76 94 153 1 60 1 61 15 31 12 -25 13 -69 8 -247 -6
-220 -1 -272 31 -298 34 -28 78 21 104 117 6 23 18 95 27 160 18 142 37 212
65 244 17 20 19 21 12 4 -4 -11 -8 -47 -8 -80 0 -69 25 -114 77 -141 92 -47
218 12 218 102 0 29 -22 75 -44 93 -14 12 -16 10 -16 -11 0 -39 -20 -87 -40
-98 -73 -39 -175 39 -155 117 9 39 83 106 132 121 54 16 86 15 131 -3 113 -48
163 -184 108 -300 -32 -71 -68 -109 -128 -139 -61 -30 -138 -34 -233 -11 -96
23 -107 20 -63 -19 66 -58 158 -71 267 -37 137 42 220 147 229 288 8 126 -43
220 -150 272 -61 30 -211 61 -295 61 -43 0 -43 -22 -2 -60 l30 -29 -40 -26
c-73 -49 -107 -115 -147 -283 -14 -59 -29 -111 -35 -116 -5 -6 -9 31 -9 100 0
175 -18 245 -84 328 -20 25 -27 40 -19 43 23 8 63 45 63 57 0 29 -293 36 -369
9z"/>
<path d="M7828 10693 c-24 -28 -28 -50 -17 -83 28 -78 129 -59 129 23 0 63
-75 103 -112 60z"/>
<path d="M8841 10641 c-12 -12 -21 -34 -21 -51 0 -23 5 -31 25 -36 36 -9 73 3
86 27 9 18 7 26 -8 48 -25 33 -56 38 -82 12z"/>
<path d="M7599 10601 c-53 -33 -82 -85 -77 -138 4 -45 39 -73 99 -80 38 -4 47
-1 68 21 36 38 41 127 12 184 -26 50 -41 52 -102 13z"/>
<path d="M7962 10604 c-30 -20 -28 -48 5 -74 36 -28 87 -24 91 7 2 12 -4 35
-13 52 -18 35 -47 40 -83 15z"/>
<path d="M5301 10599 c-25 -5 -89 -22 -142 -39 -108 -34 -117 -47 -48 -74 21
-9 39 -18 39 -20 0 -2 -12 -25 -26 -50 -38 -68 -41 -144 -14 -288 12 -64 20
-123 18 -130 -3 -7 -32 44 -65 112 -67 138 -117 200 -189 231 -24 11 -44 23
-44 27 0 4 9 18 20 32 22 29 26 60 7 60 -27 0 -188 -60 -248 -91 -146 -78
-196 -229 -127 -379 53 -117 140 -177 272 -187 104 -8 174 14 234 75 56 56 41
67 -35 28 -160 -81 -288 -67 -384 42 -90 103 -85 244 11 325 86 73 240 51 294
-42 18 -31 18 -37 5 -75 -15 -42 -66 -86 -100 -86 -28 0 -68 41 -83 84 l-14
40 -16 -32 c-40 -77 -10 -148 73 -173 133 -40 245 105 180 232 -14 28 -16 40
-7 37 24 -8 75 -108 123 -241 55 -154 87 -212 129 -238 28 -17 32 -17 48 -2
31 28 24 122 -22 280 -42 143 -63 283 -41 283 6 0 11 -15 11 -34 0 -40 34 -92
79 -123 93 -63 236 10 236 119 0 35 -6 45 -39 74 -43 37 -73 45 -60 17 4 -10
9 -35 12 -56 6 -55 -25 -87 -86 -87 -90 0 -132 66 -98 154 79 207 361 168 401
-55 10 -54 -12 -142 -48 -196 -43 -63 -105 -100 -203 -119 -102 -21 -115 -28
-83 -44 37 -21 128 -15 182 10 66 31 143 103 175 164 23 44 27 63 27 136 0
106 -26 170 -95 234 -71 66 -151 86 -259 65z"/>
<path d="M8450 10573 c0 -42 42 -122 91 -176 41 -45 49 -49 113 -58 74 -12
136 -6 176 16 l25 13 -25 5 c-14 3 -69 10 -123 16 -112 13 -102 6 -193 134
-31 42 -58 77 -60 77 -2 0 -4 -12 -4 -27z"/>
<path d="M4457 10538 c-9 -7 -19 -25 -22 -40 -5 -21 -2 -30 19 -43 29 -19 65
-17 79 6 15 24 1 64 -28 77 -32 15 -28 15 -48 0z"/>
<path d="M8366 10534 c-11 -28 -6 -65 16 -137 19 -59 23 -96 23 -204 0 -73 1
-133 3 -133 2 0 18 11 35 24 52 40 196 104 277 124 42 11 86 24 98 31 27 14
29 41 3 41 -38 0 -209 -49 -275 -79 -38 -17 -70 -31 -72 -31 -1 0 -5 21 -9 48
-13 101 -27 170 -51 244 -27 82 -38 98 -48 72z"/>
<path d="M8103 10528 c-18 -9 -23 -20 -23 -50 0 -31 4 -40 23 -47 49 -19 93
39 63 84 -18 27 -29 29 -63 13z"/>
<path d="M3910 10509 c0 -52 75 -157 96 -136 17 17 -41 128 -77 147 -16 9 -19
7 -19 -11z"/>
<path d="M8965 10499 c-50 -45 -79 -139 -70 -235 10 -115 56 -168 146 -168 58
0 94 23 122 78 25 47 15 57 -21 23 -35 -34 -62 -34 -101 -2 -61 52 -69 172
-14 226 29 29 29 30 67 14 21 -9 41 -13 44 -10 10 10 -24 59 -58 83 -44 30
-73 28 -115 -9z"/>
<path d="M4302 10498 c-20 -20 -15 -76 8 -88 29 -16 94 16 98 48 3 18 -4 26
-32 37 -43 18 -58 19 -74 3z"/>
<path d="M2974 10465 c-12 -30 -12 -40 -2 -63 28 -58 118 -22 118 47 0 35 -22
51 -70 51 -26 0 -33 -6 -46 -35z"/>
<path d="M4150 10460 c-44 -44 -4 -120 63 -120 67 0 88 61 38 111 -35 34 -72
38 -101 9z"/>
<path d="M8502 10335 c2 -36 9 -70 15 -76 7 -7 27 -4 69 13 74 30 82 48 20 48
-42 0 -48 3 -71 40 -14 22 -28 40 -31 40 -4 0 -4 -29 -2 -65z"/>
<path d="M4062 10333 c-69 -35 -117 -76 -108 -91 11 -19 31 -14 70 17 21 17
52 35 71 41 33 11 50 33 39 51 -8 13 -15 12 -72 -18z"/>
<path d="M3027 10332 c-45 -50 14 -138 66 -100 23 17 34 83 17 103 -17 21 -63
19 -83 -3z"/>
<path d="M3275 10335 c-76 -39 -86 -101 -28 -166 48 -53 104 -85 180 -103 102
-23 170 3 199 79 22 59 13 103 -31 145 -41 40 -56 33 -31 -14 14 -27 16 -38 7
-55 -19 -36 -58 -54 -114 -54 -59 0 -105 20 -136 59 -25 32 -27 57 -5 74 8 8
20 22 25 32 8 15 6 18 -13 18 -13 0 -36 -7 -53 -15z"/>
<path d="M7913 10314 c-103 -37 -182 -150 -191 -274 -6 -85 12 -140 70 -218
65 -87 179 -143 253 -124 34 10 24 18 -67 56 -135 56 -201 144 -201 267 0 172
145 289 288 235 115 -44 176 -215 98 -276 -36 -28 -66 -34 -107 -20 -65 21
-81 67 -46 133 24 44 12 49 -48 18 -62 -32 -76 -84 -42 -151 43 -84 142 -114
222 -67 43 25 56 42 79 102 7 18 13 25 16 17 11 -28 -21 -110 -102 -267 -69
-134 -85 -172 -85 -209 0 -81 16 -92 75 -56 39 24 92 93 162 210 65 107 106
159 146 185 l32 20 -18 -25 c-9 -14 -25 -36 -34 -49 -23 -33 -22 -109 3 -152
31 -53 78 -79 140 -79 45 0 59 5 86 29 28 25 33 36 33 73 0 24 -4 52 -8 62 -7
18 -10 16 -28 -15 -28 -45 -47 -59 -83 -59 -53 1 -96 51 -96 113 0 53 41 91
115 108 133 30 245 -63 245 -201 0 -133 -116 -241 -263 -242 -76 -1 -118 16
-209 83 -38 28 -71 49 -74 46 -12 -11 30 -79 69 -112 56 -48 125 -69 222 -69
97 1 158 27 224 99 108 117 118 275 26 382 -32 38 -126 106 -238 172 -34 21
-38 21 -44 6 -3 -10 0 -33 6 -52 7 -19 11 -37 8 -40 -3 -2 -25 -9 -49 -14 -71
-16 -140 -72 -223 -180 -69 -90 -95 -119 -95 -105 0 3 22 61 49 128 59 146 68
201 46 281 -8 32 -15 60 -15 62 0 3 15 5 33 5 31 0 78 23 67 33 -20 17 -196
108 -243 126 -67 24 -143 26 -204 5z"/>
<path d="M3826 10275 c-39 -40 -27 -106 23 -131 36 -18 69 1 83 48 10 34 9 42
-9 66 -24 32 -73 41 -97 17z"/>
<path d="M4051 10213 c-22 -77 -6 -142 44 -181 37 -30 64 -28 113 8 37 27 42
35 42 70 0 68 -81 140 -159 140 -26 0 -31 -5 -40 -37z"/>
<path d="M3054 10185 c-21 -32 -7 -69 32 -87 23 -11 29 -10 45 11 24 29 24 63
1 84 -27 24 -59 21 -78 -8z"/>
<path d="M3724 10163 c-22 -23 -15 -97 10 -101 41 -8 94 46 80 83 -4 8 -7 15
-8 15 0 0 -16 4 -34 9 -25 8 -35 6 -48 -6z"/>
<path d="M2575 10116 c-21 -15 -25 -67 -5 -90 7 -9 26 -16 42 -16 55 0 100 74
66 108 -16 16 -80 15 -103 -2z"/>
<path d="M8880 10060 c-24 -24 -26 -53 -4 -74 19 -20 27 -20 65 0 27 14 30 19
23 47 -11 51 -48 63 -84 27z"/>
<path d="M2717 10052 c-22 -24 -22 -56 -1 -77 13 -12 26 -15 58 -9 44 7 56 17
56 50 0 48 -79 73 -113 36z"/>
<path d="M3613 10044 c-15 -24 -15 -29 -2 -53 19 -34 73 -42 89 -12 15 29 2
71 -27 82 -35 13 -41 12 -60 -17z"/>
<path d="M3256 9945 c-27 -58 -58 -110 -68 -116 -10 -6 -65 -25 -121 -44 -100
-33 -101 -33 -72 -45 38 -15 124 -1 198 33 47 21 55 30 86 92 32 68 55 185 35
185 -5 0 -31 -47 -58 -105z"/>
<path d="M2856 10011 c-24 -26 -17 -62 17 -81 24 -13 30 -13 54 0 37 21 40 44
9 75 -30 30 -57 32 -80 6z"/>
<path d="M3385 10003 c-12 -32 -18 -257 -7 -313 6 -30 9 -56 8 -58 -2 -1 -30
5 -62 14 -33 9 -117 18 -191 21 -115 5 -133 4 -133 -10 0 -21 52 -37 126 -37
101 0 206 -24 325 -74 15 -6 14 0 -4 61 -16 54 -20 100 -22 229 -1 88 -5 166
-9 172 -10 17 -23 15 -31 -5z"/>
<path d="M8996 9997 c-38 -28 14 -92 71 -85 26 3 28 6 28 48 l0 45 -40 3 c-23
2 -48 -3 -59 -11z"/>
<path d="M9122 9927 c-28 -30 -29 -82 -3 -97 35 -18 86 -12 109 13 26 27 28
54 6 85 -21 31 -83 31 -112 -1z"/>
<path d="M9446 9926 c-37 -22 -86 -87 -86 -114 0 -19 52 11 85 50 26 30 49 77
42 84 -1 2 -20 -7 -41 -20z"/>
<path d="M3810 9891 c-60 -12 -129 -53 -219 -129 -47 -41 -90 -78 -96 -83 -15
-15 14 -29 60 -29 l40 0 0 -78 c1 -89 18 -129 118 -274 33 -49 58 -90 56 -93
-3 -2 -38 25 -79 61 -139 120 -203 154 -296 154 l-53 0 6 49 c9 79 -8 74 -118
-35 -123 -122 -154 -178 -153 -275 1 -202 204 -344 406 -285 111 32 202 118
214 201 l6 40 -75 -77 c-81 -83 -128 -112 -199 -123 -100 -15 -216 39 -266
124 -22 38 -27 58 -27 113 0 57 4 72 30 110 55 78 163 110 251 73 95 -39 70
-199 -31 -199 -26 0 -44 9 -69 33 -39 38 -50 27 -36 -34 13 -60 51 -90 109
-89 28 0 62 8 82 20 39 22 79 93 79 138 0 43 -35 108 -72 134 -18 12 -27 22
-21 22 36 0 81 -35 213 -165 170 -167 233 -205 260 -155 23 43 -20 123 -143
265 -84 97 -120 149 -135 194 -17 48 -9 48 22 0 36 -53 101 -84 160 -75 161
26 187 246 31 264 l-50 5 33 -37 c39 -45 42 -87 8 -121 -49 -49 -133 -45 -167
8 -27 43 -22 149 10 201 69 110 251 116 338 11 69 -83 81 -220 28 -311 -15
-25 -52 -64 -82 -87 -31 -23 -70 -54 -87 -69 l-31 -27 30 -1 c42 0 124 41 162
81 42 45 81 125 94 194 36 194 -153 392 -341 356z"/>
<path d="M2738 9860 c-21 -13 -53 -57 -62 -87 -6 -19 -3 -23 12 -23 11 0 25 7
32 15 41 50 130 -36 130 -125 0 -50 -30 -109 -63 -126 -28 -15 -31 -15 -58 5
-60 44 -67 16 -10 -40 32 -33 45 -39 80 -39 58 0 107 23 131 62 18 28 21 44
17 114 -9 166 -120 295 -209 244z"/>
<path d="M3280 9808 c-13 -38 -20 -44 -57 -53 -23 -6 -44 -13 -48 -16 -8 -9
42 -27 98 -34 l47 -6 0 60 c0 98 -16 118 -40 49z"/>
<path d="M9220 9805 c0 -8 9 -23 21 -32 11 -10 40 -37 64 -60 43 -43 94 -60
81 -27 -3 9 -6 17 -6 19 0 1 -30 28 -66 59 -66 56 -94 69 -94 41z"/>
<path d="M10300 9727 c-34 -17 -38 -64 -10 -100 38 -49 100 -24 100 39 0 55
-44 84 -90 61z"/>
<path d="M9138 9690 c-45 -24 -78 -69 -78 -105 0 -33 54 -91 94 -101 33 -8 69
15 104 67 19 27 22 44 20 94 l-3 60 -50 2 c-34 2 -62 -4 -87 -17z"/>
<path d="M9410 9673 c-55 -71 27 -166 90 -103 50 50 32 123 -32 128 -29 3 -40
-2 -58 -25z"/>
<path d="M9754 9651 c-73 -45 -95 -121 -54 -189 31 -51 75 -72 151 -72 118 0
231 51 258 118 16 39 -5 87 -52 120 -54 36 -75 23 -41 -27 48 -67 -89 -140
-191 -101 -33 12 -75 58 -75 80 0 10 9 29 21 44 28 36 20 50 -17 27z"/>
<path d="M10226 9585 c-19 -19 -22 -85 -4 -103 33 -33 98 2 98 53 0 48 -62 81
-94 50z"/>
<path d="M9500 9545 c-16 -19 3 -71 31 -85 36 -20 58 -12 64 24 11 57 0 76
-44 76 -22 0 -44 -6 -51 -15z"/>
<path d="M10171 9451 c-23 -23 -28 -70 -9 -89 29 -29 98 3 98 46 0 47 -57 75
-89 43z"/>
<path d="M2934 9436 c-3 -8 -4 -27 -2 -42 4 -34 48 -55 76 -38 21 13 28 60 11
80 -15 18 -78 19 -85 0z"/>
<path d="M9615 9433 c-26 -7 -35 -21 -35 -59 0 -32 13 -44 49 -44 24 0 51 31
51 58 0 20 -25 53 -38 51 -4 -1 -16 -4 -27 -6z"/>
<path d="M2823 9353 c-17 -6 -16 -64 1 -88 12 -16 17 -17 43 -6 38 15 65 60
52 84 -10 17 -66 23 -96 10z"/>
<path d="M9961 9332 c-16 -30 -13 -103 5 -178 15 -59 22 -70 63 -100 53 -39
139 -74 181 -74 38 0 38 13 3 29 -71 32 -175 105 -185 130 -5 14 -18 66 -28
115 -11 48 -21 90 -24 93 -2 3 -9 -4 -15 -15z"/>
<path d="M9855 9317 c-8 -13 -19 -58 -25 -101 -14 -96 -51 -214 -91 -285 -25
-44 -27 -53 -13 -47 52 20 179 28 267 16 182 -23 182 -23 196 -7 11 14 6 18
-37 31 -70 20 -233 39 -292 34 -28 -3 -50 -5 -50 -4 0 1 9 25 20 55 26 66 46
163 56 259 7 77 -2 92 -31 49z"/>
<path d="M9285 9311 c-122 -32 -224 -148 -241 -273 -12 -84 28 -210 85 -271
31 -34 96 -69 119 -65 12 2 0 21 -45 71 -81 89 -104 138 -105 222 -1 143 108
265 237 265 143 0 236 -128 195 -269 -16 -57 -46 -81 -101 -81 -66 0 -109 36
-109 90 0 33 6 43 43 74 l42 36 -58 0 c-51 0 -62 -4 -88 -29 -25 -25 -29 -37
-29 -84 0 -94 64 -157 158 -157 50 0 75 11 120 53 17 17 32 26 32 20 0 -25
-65 -96 -147 -159 -153 -118 -201 -163 -223 -210 -29 -58 -22 -74 31 -74 51 0
124 36 252 125 105 72 198 119 225 112 15 -3 15 -5 -3 -12 -135 -54 -155 -212
-36 -292 37 -25 98 -30 133 -12 19 10 57 81 58 107 0 18 -18 15 -47 -8 -39
-31 -86 -26 -117 11 -37 43 -36 98 3 141 27 30 34 33 88 32 101 -2 178 -58
202 -150 22 -81 -18 -181 -88 -225 -80 -51 -167 -63 -254 -33 -61 21 -114 74
-167 167 -24 43 -48 77 -53 77 -15 0 -2 -91 17 -132 27 -56 90 -114 164 -150
57 -28 77 -33 137 -33 170 2 310 132 310 290 0 34 -8 79 -18 105 -18 45 -157
260 -168 260 -11 0 -29 -50 -29 -80 0 -28 0 -28 -37 -18 -79 22 -147 5 -298
-72 l-140 -72 112 114 c118 120 146 164 158 251 6 38 11 47 24 43 44 -13 67
-15 79 -7 11 6 -2 29 -55 97 -85 111 -132 157 -188 184 -49 24 -133 33 -180
21z"/>
<path d="M10601 9281 c-18 -12 -19 -65 -1 -87 18 -21 58 -36 80 -29 17 6 40
45 40 70 0 40 -80 70 -119 46z"/>
<path d="M2710 9267 c-18 -9 -26 -22 -28 -46 -6 -57 47 -92 105 -70 50 19 58
65 18 104 -27 28 -57 31 -95 12z"/>
<path d="M10458 9248 c-16 -13 -21 -28 -19 -59 2 -34 103 -54 115 -23 11 28 6
62 -10 78 -19 19 -64 21 -86 4z"/>
<path d="M10317 9222 c-37 -41 -11 -82 50 -82 35 0 53 16 53 46 0 49 -69 73
-103 36z"/>
<path d="M2446 9180 c21 -36 97 -90 126 -90 23 0 23 5 -3 41 -20 28 -68 58
-118 74 l-23 7 18 -32z"/>
<path d="M9916 9118 c-8 -18 -16 -50 -20 -70 l-7 -36 56 -7 c32 -4 66 -3 78 2
21 9 20 11 -19 31 -45 23 -54 37 -54 83 0 39 -18 37 -34 -3z"/>
<path d="M2671 9103 c-68 -88 -81 -108 -81 -129 0 -13 5 -24 10 -24 13 0 50
37 50 50 0 5 15 27 34 48 19 20 36 46 38 57 5 31 -27 29 -51 -2z"/>
<path d="M10379 9050 c-72 -38 -142 -148 -155 -245 -15 -108 99 -195 193 -146
75 38 84 74 13 51 -36 -12 -42 -11 -60 5 -59 54 -39 190 35 239 35 23 64 20
91 -9 33 -35 47 -32 39 8 -15 69 -56 118 -100 117 -11 -1 -36 -9 -56 -20z"/>
<path d="M2700 9015 c-8 -10 -10 -28 -5 -52 23 -123 129 -184 196 -112 55 59
48 110 -20 156 -41 28 -150 33 -171 8z"/>
<path d="M2476 8954 c-16 -16 -21 -59 -10 -89 9 -23 62 -48 89 -41 45 11 55
86 17 129 -19 21 -75 22 -96 1z"/>
<path d="M2196 8858 c5 -7 18 -21 31 -31 45 -36 21 -103 -50 -139 -56 -28
-138 -22 -174 14 -24 24 -24 28 -12 62 7 19 10 38 7 42 -20 19 -98 -70 -98
-113 0 -12 11 -35 25 -52 73 -86 293 -88 372 -4 29 31 33 41 33 91 0 36 -6 66
-16 80 -26 38 -140 86 -118 50z"/>
<path d="M1630 8812 c-44 -35 -18 -122 36 -122 27 0 64 44 64 76 0 29 -33 64
-59 64 -10 0 -29 -8 -41 -18z"/>
<path d="M2426 8807 c-17 -13 -18 -17 -5 -58 12 -37 18 -44 39 -44 33 0 71 65
54 92 -14 23 -63 28 -88 10z"/>
<path d="M1755 8702 c-33 -7 -45 -22 -45 -57 0 -40 29 -68 66 -63 39 4 50 28
36 76 -13 42 -24 51 -57 44z"/>
<path d="M10127 8682 c-21 -24 -22 -68 -1 -76 9 -3 28 -6 44 -6 22 0 30 7 41
31 12 29 11 33 -10 50 -29 24 -53 24 -74 1z"/>
<path d="M2388 8673 c-10 -2 -21 -15 -24 -28 -13 -53 47 -95 86 -60 24 22 25
38 4 70 -16 24 -29 28 -66 18z"/>
<path d="M2709 8620 c-106 -18 -168 -79 -250 -246 -32 -67 -59 -124 -59 -128
0 -11 45 -5 70 9 14 8 28 14 32 15 3 0 14 -23 24 -52 23 -70 93 -139 217 -212
83 -50 119 -76 105 -76 -2 0 -57 16 -123 36 -149 44 -236 49 -309 16 -59 -27
-56 -27 -56 -2 0 24 -27 80 -38 80 -12 0 -100 -222 -110 -280 -24 -133 35
-247 162 -312 28 -15 66 -23 122 -26 72 -4 89 -1 137 21 141 64 232 217 201
335 -4 12 -9 22 -13 22 -4 0 -19 -38 -34 -85 -37 -112 -78 -170 -147 -209 -48
-27 -65 -31 -130 -31 -61 0 -85 5 -125 25 -99 51 -144 183 -96 278 23 45 43
63 98 91 62 31 117 28 154 -8 24 -25 29 -38 29 -78 0 -39 -5 -54 -23 -71 -28
-26 -75 -29 -117 -7 -36 19 -39 7 -9 -41 39 -63 89 -80 148 -49 134 69 112
262 -34 300 -45 12 -48 13 -24 20 36 9 89 -6 249 -70 157 -63 225 -79 270 -64
22 8 30 17 30 35 0 42 -63 89 -229 173 -149 76 -231 130 -231 152 0 6 20 -2
43 -16 141 -82 295 51 232 201 -17 41 -69 68 -113 58 -73 -16 -80 -26 -33 -42
77 -27 93 -92 37 -148 -28 -28 -41 -34 -78 -34 -55 0 -92 35 -114 105 -20 67
-18 93 12 153 34 68 90 103 177 109 57 4 67 2 117 -29 93 -57 140 -137 140
-239 0 -58 -17 -105 -69 -193 -22 -39 -39 -72 -37 -74 2 -2 18 4 34 12 41 21
88 81 107 135 19 55 19 182 1 234 -50 139 -204 231 -347 207z"/>
<path d="M1812 8574 c-42 -29 -13 -104 41 -104 50 0 64 60 24 98 -28 26 -36
27 -65 6z"/>
<path d="M10207 8583 c-4 -3 -7 -17 -7 -30 0 -28 53 -87 72 -81 20 7 49 64 42
81 -9 25 -90 48 -107 30z"/>
<path d="M2170 8521 c0 -42 76 -229 124 -308 15 -23 23 -44 19 -46 -5 -2 -30
-8 -56 -11 -92 -14 -297 -93 -297 -116 0 -20 30 -22 78 -5 158 56 197 67 288
77 l100 12 -48 64 c-54 71 -106 169 -133 251 -17 52 -45 91 -65 91 -5 0 -10
-4 -10 -9z"/>
<path d="M2078 8398 l-4 -122 -90 -83 c-72 -67 -85 -83 -66 -83 37 0 97 36
156 94 l56 54 0 84 c0 89 -12 149 -34 167 -11 9 -14 -9 -18 -111z"/>
<path d="M10285 8455 c-31 -30 -31 -47 -2 -79 32 -36 84 -39 117 -6 28 28 25
64 -6 89 -36 28 -79 27 -109 -4z"/>
<path d="M1702 8324 c-24 -17 -30 -62 -10 -82 29 -29 108 2 108 42 0 16 -46
56 -64 56 -6 0 -22 -7 -34 -16z"/>
<path d="M2155 8293 c7 -45 6 -48 -32 -79 -21 -18 -35 -35 -31 -40 11 -11 138
26 138 40 0 23 -51 114 -67 120 -13 5 -14 0 -8 -41z"/>
<path d="M10561 8329 c-33 -13 -81 -49 -81 -60 0 -30 115 7 154 50 19 21 19
21 -15 20 -19 0 -45 -5 -58 -10z"/>
<path d="M1413 8310 c-41 -24 -45 -66 -10 -98 30 -28 39 -28 76 4 36 30 41 72
13 97 -24 22 -40 21 -79 -3z"/>
<path d="M1562 8314 c-37 -26 -23 -104 19 -104 38 0 79 32 79 62 0 28 -31 58
-60 58 -9 0 -26 -7 -38 -16z"/>
<path d="M10353 8315 c-3 -10 6 -41 22 -74 15 -31 33 -67 39 -81 16 -34 42
-33 39 2 -2 33 -64 160 -80 166 -7 2 -16 -4 -20 -13z"/>
<path d="M10170 8232 c-19 -9 -41 -29 -50 -44 -13 -24 -13 -32 1 -69 31 -85
102 -101 172 -39 38 33 73 101 63 125 -15 41 -126 58 -186 27z"/>
<path d="M1654 8127 c-23 -20 -28 -34 -32 -88 l-5 -64 21 19 c12 10 24 27 27
37 13 40 105 15 144 -39 28 -40 45 -111 32 -143 -17 -45 -37 -58 -81 -52 -23
3 -40 2 -40 -4 0 -15 76 -46 111 -45 66 2 129 72 129 142 0 71 -78 181 -164
230 -62 36 -105 38 -142 7z"/>
<path d="M10484 8129 c-45 -16 -67 -76 -44 -120 16 -29 74 -26 105 6 54 53 7
140 -61 114z"/>
<path d="M10508 7973 c-43 -10 -23 -123 22 -123 24 0 50 38 53 75 2 23 -4 30
-28 40 -16 6 -38 10 -47 8z"/>
<path d="M10752 7960 c-110 -26 -138 -182 -45 -248 83 -58 232 -80 303 -44 51
25 67 59 52 110 -16 54 -48 92 -61 73 -5 -8 -7 -29 -4 -46 5 -29 2 -33 -32
-49 -71 -34 -174 5 -209 79 -23 48 -15 77 29 98 61 29 42 45 -33 27z"/>
<path d="M2009 7831 c-20 -16 -22 -23 -14 -46 14 -40 36 -51 71 -34 32 16 44
58 22 76 -27 22 -55 24 -79 4z"/>
<path d="M10071 7835 c-70 -20 -111 -46 -160 -101 -53 -61 -76 -129 -76 -229
0 -89 19 -137 74 -189 38 -37 39 -24 6 74 -32 94 -33 182 -4 245 25 52 92 118
146 141 170 73 352 -85 288 -252 -23 -60 -58 -100 -100 -114 -65 -21 -135 35
-135 108 0 42 20 63 76 77 l49 12 -35 22 c-51 31 -105 28 -140 -7 -84 -84 -40
-230 79 -262 35 -9 51 -8 89 4 54 19 63 15 25 -11 -40 -28 -71 -38 -228 -78
-164 -41 -239 -74 -260 -116 -15 -27 -14 -29 12 -46 38 -25 147 -23 293 6 125
25 227 29 256 12 16 -9 12 -10 -24 -11 -82 0 -140 -44 -164 -121 -15 -52 3
-112 47 -156 28 -28 40 -33 80 -33 40 0 52 5 81 34 19 19 34 38 34 43 0 6 -25
8 -55 5 -65 -5 -91 11 -101 63 -14 78 58 146 133 126 118 -32 184 -168 134
-276 -66 -146 -262 -175 -391 -59 -58 52 -80 102 -93 209 -7 52 -15 97 -19
101 -4 4 -15 -10 -24 -32 -49 -118 38 -304 174 -371 50 -24 68 -28 142 -27
102 1 142 17 211 80 61 58 84 116 83 209 0 76 -31 254 -46 270 -11 12 -58 -38
-58 -61 0 -19 -6 -18 -44 11 -66 50 -113 59 -290 52 -99 -4 -155 -2 -146 3 8
5 64 26 125 47 60 21 130 51 155 68 41 28 102 97 112 127 3 9 16 5 46 -15 42
-30 63 -30 56 1 -25 117 -59 232 -79 271 -64 128 -195 185 -334 146z"/>
<path d="M10522 7807 c-39 -41 -23 -87 30 -87 18 0 33 8 44 25 20 30 11 58
-22 73 -31 15 -27 16 -52 -11z"/>
<path d="M11266 7788 c-27 -38 -16 -87 25 -108 43 -24 102 47 78 93 -16 29
-28 37 -61 37 -17 0 -33 -9 -42 -22z"/>
<path d="M1955 7709 c-39 -22 -46 -39 -28 -70 10 -16 26 -32 36 -35 29 -9 59
27 61 73 1 34 -2 38 -24 40 -14 2 -34 -2 -45 -8z"/>
<path d="M11160 7693 c-11 -14 -20 -29 -20 -34 0 -4 -3 -14 -6 -22 -8 -21 23
-47 56 -47 51 0 80 70 43 102 -33 28 -51 28 -73 1z"/>
<path d="M10719 7603 c-14 -16 -46 -61 -73 -101 -44 -67 -186 -212 -207 -212
-5 0 -9 -4 -9 -9 0 -5 18 -11 41 -15 71 -11 190 -63 278 -121 79 -52 138 -71
129 -42 -8 24 -134 109 -229 155 l-96 47 62 74 c62 73 136 186 149 229 10 32
-14 29 -45 -5z"/>
<path d="M11046 7588 c-22 -31 -20 -65 5 -78 30 -16 59 -8 82 22 19 25 19 28
3 52 -21 34 -68 35 -90 4z"/>
<path d="M1883 7585 c-21 -9 -35 -23 -39 -40 -21 -84 85 -116 139 -43 18 24
19 31 7 52 -7 14 -26 30 -43 36 -16 5 -30 10 -31 10 -1 -1 -15 -7 -33 -15z"/>
<path d="M10822 7573 c-23 -34 -49 -111 -58 -176 -6 -44 -3 -52 36 -112 45
-68 85 -109 121 -120 34 -11 33 2 -4 47 -59 73 -97 140 -97 172 0 17 9 71 20
120 23 105 22 96 11 96 -5 0 -18 -12 -29 -27z"/>
<path d="M1891 7413 c-30 -78 -40 -183 -17 -183 21 0 29 17 39 80 4 30 10 72
13 93 5 29 3 37 -9 37 -8 0 -20 -12 -26 -27z"/>
<path d="M10703 7408 c-11 -13 -29 -36 -39 -52 l-18 -29 28 -22 c27 -22 96
-48 104 -40 3 2 -9 21 -25 42 -28 36 -29 40 -17 81 15 49 1 57 -33 20z"/>
<path d="M1630 7393 c0 -17 62 -45 114 -50 63 -6 79 8 40 34 -29 18 -154 32
-154 16z"/>
<path d="M1999 7370 c-55 -29 -63 -43 -45 -78 21 -41 84 -91 123 -98 70 -13
106 15 119 93 6 38 3 45 -24 73 -26 26 -37 30 -84 30 -32 -1 -67 -8 -89 -20z"/>
<path d="M11102 7334 c-27 -19 -28 -34 -1 -68 22 -28 66 -35 87 -14 20 20 14
65 -10 82 -12 9 -29 16 -38 16 -9 0 -26 -7 -38 -16z"/>
<path d="M11226 7288 c-21 -30 -20 -37 11 -70 32 -34 66 -36 87 -6 22 31 20
51 -7 76 -30 29 -71 28 -91 0z"/>
<path d="M11374 7255 c-20 -30 -13 -66 18 -95 27 -25 39 -25 72 1 33 26 34 62
1 94 -32 32 -70 32 -91 0z"/>
<path d="M1780 7200 c-28 -28 -25 -57 9 -91 34 -34 79 -39 104 -11 60 66 -51
164 -113 102z"/>
<path d="M11015 7131 c-65 -31 -147 -109 -164 -154 -27 -70 5 -149 73 -181 29
-13 43 -14 86 -5 60 13 62 33 3 37 -32 2 -43 8 -52 28 -16 36 -14 62 10 112
29 59 83 94 140 90 38 -3 44 -7 53 -35 23 -67 46 -50 46 35 0 103 -75 131
-195 73z"/>
<path d="M1796 7039 c-26 -20 -26 -22 -10 -48 9 -14 25 -34 36 -44 20 -16 22
-16 39 -1 19 17 25 66 13 98 -9 22 -46 20 -78 -5z"/>
<path d="M2205 7011 c-83 -22 -163 -93 -190 -169 -19 -50 -37 -330 -22 -339 4
-2 24 12 43 31 l36 36 44 -44 c58 -58 128 -84 279 -103 66 -8 122 -17 124 -19
9 -8 -8 -12 -124 -27 -151 -19 -221 -45 -279 -103 l-44 -44 -36 36 c-19 19
-39 33 -43 31 -5 -3 -5 -70 -2 -149 8 -168 22 -219 81 -279 60 -61 117 -84
213 -84 101 1 166 27 228 94 63 68 89 129 94 226 3 69 1 86 -20 124 -40 77
-47 65 -40 -68 6 -116 5 -121 -21 -176 -66 -133 -246 -194 -357 -120 -65 42
-93 89 -97 161 -4 55 -1 69 22 108 71 121 193 132 235 23 25 -67 -15 -117 -94
-117 -19 0 -35 -4 -35 -10 0 -19 75 -60 109 -60 44 0 107 62 117 116 21 111
-95 217 -203 185 -48 -14 -40 4 9 24 30 12 93 19 229 25 150 7 196 12 231 27
58 26 75 47 57 70 -35 41 -94 54 -288 63 -136 6 -199 13 -229 25 -49 20 -57
38 -9 24 108 -32 224 74 203 185 -4 22 -22 52 -45 76 -45 48 -89 53 -141 18
-47 -32 -49 -48 -6 -48 80 0 117 -45 94 -115 -38 -112 -163 -101 -234 21 -23
39 -26 53 -22 108 4 72 32 119 97 161 110 73 285 16 354 -115 29 -54 29 -57
24 -178 -6 -136 0 -148 40 -71 21 38 23 55 20 124 -10 184 -133 313 -307 321
-36 2 -78 0 -95 -5z"/>
<path d="M1557 6993 c-14 -14 -6 -22 28 -29 43 -8 59 -34 50 -80 -12 -69 -94
-134 -168 -134 -44 0 -65 18 -69 59 -6 66 -38 40 -53 -42 -10 -51 18 -94 68
-108 93 -25 272 53 311 136 46 97 -17 205 -120 205 -22 0 -44 -3 -47 -7z"/>
<path d="M10696 6908 c-20 -29 -20 -34 4 -58 25 -25 62 -26 83 -2 22 24 21 45
-1 65 -26 24 -68 21 -86 -5z"/>
<path d="M1810 6892 c-50 -41 12 -112 66 -77 29 19 31 48 4 75 -25 25 -41 25
-70 2z"/>
<path d="M10740 6779 c-12 -22 -6 -65 12 -86 24 -29 88 -1 88 37 0 20 -51 70
-72 70 -9 0 -22 -9 -28 -21z"/>
<path d="M1061 6714 c-28 -36 -26 -50 8 -85 35 -34 54 -36 81 -9 23 23 25 51
9 83 -24 45 -67 50 -98 11z"/>
<path d="M1201 6644 c-27 -34 -26 -50 4 -79 29 -30 58 -32 85 -5 26 26 25 36
-6 77 -30 40 -55 42 -83 7z"/>
<path d="M1669 6651 c19 -34 160 -170 216 -207 30 -20 55 -40 55 -44 0 -4 -25
-24 -55 -44 -56 -37 -197 -173 -216 -207 -8 -16 -6 -19 17 -19 19 0 43 17 90
65 80 81 165 144 237 176 31 13 57 26 57 29 0 3 -26 16 -57 29 -72 32 -157 95
-237 176 -47 48 -71 65 -90 65 -23 0 -25 -3 -17 -19z"/>
<path d="M10750 6640 c-23 -23 -24 -29 -10 -64 12 -31 64 -60 96 -52 13 4 31
18 40 31 14 21 14 30 4 55 -7 17 -21 35 -31 40 -30 16 -78 11 -99 -10z"/>
<path d="M1583 6619 c3 -8 22 -52 43 -99 21 -47 38 -101 38 -120 0 -20 -19
-76 -42 -129 -23 -52 -40 -96 -37 -99 14 -14 94 91 120 157 l28 71 -26 68
c-28 70 -73 134 -109 153 -17 9 -20 9 -15 -2z"/>
<path d="M1320 6571 c-22 -43 2 -91 46 -91 34 0 66 29 59 53 -15 51 -84 76
-105 38z"/>
<path d="M10777 6493 c-9 -31 -6 -179 3 -194 8 -11 12 -11 22 -1 16 16 23 149
9 185 -12 31 -27 35 -34 10z"/>
<path d="M10533 6490 c-12 -5 -26 -18 -32 -29 -17 -32 -13 -106 7 -131 25 -30
97 -38 143 -15 45 23 89 65 89 85 0 20 -44 62 -87 84 -35 17 -85 20 -120 6z"/>
<path d="M1742 6445 l22 -45 -22 -45 c-12 -25 -18 -45 -14 -45 19 1 86 51 110
82 12 14 6 22 -41 57 -70 53 -82 52 -55 -4z"/>
<path d="M10908 6418 c-16 -5 -28 -13 -28 -18 0 -10 56 -30 84 -30 33 0 96 20
96 30 0 11 -66 30 -100 29 -14 0 -37 -5 -52 -11z"/>
<path d="M1327 6302 c-19 -21 -21 -45 -7 -73 21 -38 90 -13 105 38 12 43 -66
71 -98 35z"/>
<path d="M10777 6264 c-25 -13 -47 -49 -47 -75 0 -19 41 -49 69 -49 43 0 60 9
76 41 20 38 19 46 -10 74 -28 29 -48 31 -88 9z"/>
<path d="M1205 6235 c-30 -29 -31 -45 -4 -79 28 -35 53 -33 83 7 31 41 32 51
6 77 -27 27 -56 25 -85 -5z"/>
<path d="M1069 6171 c-34 -35 -36 -49 -8 -85 31 -39 74 -34 98 11 16 32 14 60
-9 83 -27 27 -46 25 -81 -9z"/>
<path d="M10183 6166 c-124 -41 -220 -161 -230 -291 -5 -60 18 -147 35 -131 4
4 12 49 19 101 14 110 36 158 98 213 97 86 241 92 328 14 101 -92 101 -228 1
-310 -54 -45 -104 -57 -148 -37 -64 31 -84 126 -36 170 15 14 31 17 75 13 30
-3 55 -1 55 5 0 5 -15 24 -34 43 -29 29 -41 34 -81 34 -40 0 -52 -5 -80 -33
-107 -107 -37 -276 117 -277 36 -1 40 -2 24 -11 -29 -17 -131 -13 -256 12
-146 29 -255 31 -293 6 -26 -17 -27 -19 -12 -46 21 -42 96 -75 260 -116 156
-39 187 -50 228 -78 38 -26 29 -30 -25 -11 -155 52 -282 -143 -168 -258 35
-35 89 -38 140 -7 l35 22 -49 12 c-56 14 -76 35 -76 77 0 73 70 129 135 108
42 -14 77 -54 100 -114 64 -167 -118 -325 -288 -252 -54 23 -121 89 -146 141
-29 63 -28 151 4 245 33 98 32 111 -6 74 -55 -52 -74 -100 -74 -189 0 -103 23
-170 80 -233 115 -128 322 -143 433 -32 57 56 91 146 136 352 7 31 -14 31 -56
1 -30 -20 -43 -24 -46 -15 -10 30 -71 99 -112 127 -25 17 -95 47 -155 68 -61
21 -117 42 -125 47 -9 5 47 7 146 3 177 -7 224 2 290 52 38 29 44 30 44 11 0
-23 47 -73 58 -61 15 16 46 194 46 270 1 45 -6 87 -17 117 -21 54 -96 129
-153 153 -53 23 -169 28 -221 11z"/>
<path d="M1403 6139 c-42 -12 -67 -58 -58 -106 15 -82 47 -107 53 -42 4 41 25
59 69 59 74 0 156 -65 168 -134 9 -46 -7 -72 -50 -80 -49 -10 -39 -30 16 -34
55 -3 99 22 122 71 38 79 13 148 -75 207 -83 55 -181 79 -245 59z"/>
<path d="M10752 6107 c-31 -37 -20 -107 16 -107 22 0 72 50 72 71 0 38 -65 64
-88 36z"/>
<path d="M10922 6003 c-67 -33 -97 -111 -71 -180 17 -45 99 -123 164 -154 120
-58 195 -30 195 73 0 85 -23 102 -46 35 -9 -28 -15 -32 -53 -35 -57 -4 -111
31 -140 90 -24 50 -26 76 -10 112 9 20 20 26 52 28 59 4 57 24 -3 37 -61 13
-48 14 -88 -6z"/>
<path d="M1823 5990 c-34 -14 -41 -59 -13 -82 29 -23 45 -23 70 2 26 26 25 55
-2 74 -25 18 -25 18 -55 6z"/>
<path d="M10700 5950 c-24 -24 -24 -29 -4 -58 19 -27 64 -29 87 -4 22 24 21
45 -1 65 -25 23 -58 21 -82 -3z"/>
<path d="M1822 5854 c-12 -8 -29 -28 -37 -44 -14 -27 -14 -30 11 -49 32 -25
69 -27 78 -5 12 31 6 81 -12 97 -16 15 -20 15 -40 1z"/>
<path d="M1789 5691 c-34 -34 -37 -63 -9 -91 44 -44 130 -6 130 58 0 63 -71
83 -121 33z"/>
<path d="M10764 5665 c-93 -61 -185 -104 -266 -124 -38 -9 -68 -19 -68 -23 0
-5 4 -8 10 -8 21 0 161 -145 207 -213 26 -40 58 -84 72 -99 25 -29 51 -37 51
-17 0 23 -97 174 -156 243 l-61 72 96 46 c96 47 231 139 231 158 0 23 -51 7
-116 -35z"/>
<path d="M11392 5640 c-31 -29 -38 -65 -18 -95 21 -32 59 -32 91 0 33 32 32
68 -1 94 -33 26 -45 26 -72 1z"/>
<path d="M10894 5621 c-32 -19 -75 -70 -113 -134 -26 -42 -25 -70 5 -178 15
-54 56 -120 68 -108 3 3 -3 46 -14 95 -29 130 -27 141 30 227 27 41 56 80 65
87 38 31 6 40 -41 11z"/>
<path d="M2045 5594 c-67 -35 -116 -103 -94 -130 24 -30 88 -54 139 -54 44 0
56 5 81 29 32 32 34 47 19 103 -18 64 -80 86 -145 52z"/>
<path d="M11235 5580 c-28 -29 -29 -32 -14 -58 20 -36 63 -41 95 -11 28 26 30
46 8 77 -21 31 -55 28 -89 -8z"/>
<path d="M1860 5538 c1 -75 34 -178 57 -178 12 0 14 8 9 38 -3 20 -9 62 -13
92 -10 63 -18 80 -39 80 -9 0 -14 -11 -14 -32z"/>
<path d="M11100 5533 c-26 -33 -23 -53 13 -73 24 -13 30 -13 55 0 30 17 41 62
21 86 -19 24 -65 17 -89 -13z"/>
<path d="M10734 5528 c-17 -6 -44 -20 -60 -33 l-28 -22 18 -29 c27 -43 58 -74
72 -74 11 0 11 8 0 43 -13 42 -12 45 15 78 42 50 40 55 -17 37z"/>
<path d="M1700 5451 c-34 -11 -70 -34 -70 -45 0 -4 29 -7 64 -4 63 4 122 30
111 48 -7 12 -69 12 -105 1z"/>
<path d="M2409 5346 c-147 -52 -223 -179 -197 -326 10 -58 98 -280 110 -280
11 0 38 56 38 80 0 25 -3 25 56 -2 73 -33 160 -28 309 16 66 20 121 36 123 36
14 0 -22 -26 -105 -76 -124 -73 -194 -142 -217 -212 -10 -29 -21 -52 -24 -52
-4 1 -18 7 -32 15 -25 14 -70 20 -70 9 0 -21 125 -255 151 -282 106 -112 251
-126 384 -38 91 60 134 145 135 267 0 89 -18 150 -61 202 -28 35 -86 74 -95
65 -2 -2 15 -35 37 -74 52 -88 69 -135 69 -193 0 -102 -47 -182 -140 -239 -50
-31 -60 -33 -116 -29 -38 3 -77 13 -101 27 -45 25 -90 87 -99 137 -9 48 14
130 48 169 26 29 36 34 75 34 38 0 50 -5 79 -34 55 -55 38 -122 -37 -148 -16
-5 -29 -14 -29 -19 0 -8 10 -11 74 -24 36 -7 86 22 101 59 63 150 -91 283
-232 201 -23 -14 -43 -22 -43 -16 0 22 82 76 231 152 166 84 229 131 229 173
0 18 -8 27 -30 35 -45 15 -113 -1 -270 -64 -160 -64 -213 -79 -249 -70 -24 7
-21 8 24 20 146 38 168 231 34 300 -59 31 -109 14 -148 -49 -30 -48 -27 -60 9
-41 77 40 140 4 140 -79 0 -95 -85 -134 -183 -85 -55 28 -75 46 -98 91 -48 95
-3 227 96 278 40 20 64 25 125 25 140 0 221 -70 277 -240 15 -47 30 -85 34
-85 4 0 9 10 13 23 31 116 -59 269 -197 333 -60 27 -166 32 -228 10z"/>
<path d="M1860 5320 c-36 -36 -21 -91 30 -109 35 -12 75 -1 96 27 20 26 17 41
-15 73 -35 35 -81 39 -111 9z"/>
<path d="M11048 5289 c-24 -14 -23 -54 2 -79 28 -28 66 -26 86 6 16 24 16 27
-3 52 -22 29 -58 38 -85 21z"/>
<path d="M11140 5190 c-9 -16 -7 -29 7 -58 21 -43 54 -53 84 -26 23 21 24 52
3 82 -21 30 -79 31 -94 2z"/>
<path d="M1946 5184 c-33 -33 -38 -52 -16 -74 23 -23 63 -35 86 -26 33 13 -4
116 -42 116 -7 0 -20 -7 -28 -16z"/>
<path d="M10790 5128 c-70 -27 -106 -52 -125 -88 -31 -61 -9 -148 47 -183 31
-20 108 -32 108 -18 0 6 -16 19 -35 28 -44 21 -52 50 -29 98 34 73 135 112
208 81 36 -15 38 -18 33 -49 -3 -19 -1 -40 4 -48 13 -19 45 19 61 73 15 51 -1
85 -52 110 -49 25 -150 23 -220 -4z"/>
<path d="M11275 5105 c-43 -42 -22 -115 33 -115 71 1 91 81 30 124 -30 21 -35
20 -63 -9z"/>
<path d="M10512 5068 c-18 -18 -14 -49 9 -74 18 -19 25 -21 50 -12 36 12 46
42 25 73 -18 27 -63 34 -84 13z"/>
<path d="M1810 5053 c-38 -11 -90 -37 -90 -46 0 -6 17 -7 40 -4 44 6 64 -7 81
-52 13 -32 -4 -103 -32 -143 -39 -54 -131 -79 -144 -39 -3 10 -15 27 -27 37
l-21 19 5 -64 c4 -54 9 -68 32 -88 37 -31 80 -29 142 7 86 49 164 159 164 230
0 63 -45 122 -108 139 -15 4 -34 6 -42 4z"/>
<path d="M2006 5039 c-23 -33 -20 -56 8 -75 22 -13 29 -14 53 -2 18 8 29 22
31 39 3 29 -11 44 -49 54 -21 5 -30 2 -43 -16z"/>
<path d="M10493 4916 c-19 -40 -12 -81 15 -88 11 -3 34 1 52 8 28 12 31 17 25
41 -18 77 -64 96 -92 39z"/>
<path d="M10440 4791 c-40 -75 50 -161 110 -106 47 43 4 125 -64 125 -25 0
-38 -6 -46 -19z"/>
<path d="M1965 4769 c-11 -17 15 -34 107 -69 88 -34 181 -60 215 -60 34 0 34
-12 1 -65 -52 -83 -129 -287 -115 -302 14 -13 47 22 62 64 35 97 93 210 142
274 l50 66 -76 7 c-86 8 -218 40 -271 67 -51 25 -106 34 -115 18z"/>
<path d="M10158 4741 c-13 -11 -31 -38 -38 -61 -12 -36 -12 -46 1 -69 30 -54
122 -77 194 -46 45 18 52 37 30 85 -21 46 -59 85 -98 99 -41 16 -61 14 -89 -8z"/>
<path d="M1984 4607 l89 -83 6 -124 6 -125 20 29 c16 24 20 51 23 133 l4 103
-56 55 c-61 59 -121 95 -158 95 -19 0 -6 -16 66 -83z"/>
<path d="M10416 4648 c-9 -12 -16 -29 -16 -37 0 -8 -12 -34 -26 -58 -27 -46
-29 -78 -4 -78 17 0 81 124 83 162 3 34 -17 40 -37 11z"/>
<path d="M2090 4621 c0 -5 16 -21 36 -36 35 -26 35 -29 29 -76 -6 -42 -5 -48
9 -43 15 6 66 98 66 120 0 6 -26 19 -58 28 -66 18 -82 20 -82 7z"/>
<path d="M1402 4587 c-33 -35 -29 -73 11 -97 40 -25 59 -25 80 -2 27 29 21 67
-14 96 -38 32 -50 32 -77 3z"/>
<path d="M9622 4592 c-108 -39 -190 -114 -220 -201 -14 -39 -16 -101 -4 -101
4 0 28 34 52 77 53 93 106 146 167 167 87 30 174 18 254 -33 70 -44 110 -144
88 -225 -24 -92 -101 -148 -202 -150 -54 -1 -61 2 -88 32 -43 48 -36 129 15
164 21 14 74 8 99 -12 29 -23 47 -26 47 -7 -1 25 -39 96 -58 106 -35 18 -96
13 -133 -12 -119 -80 -99 -238 36 -292 18 -7 18 -9 3 -12 -28 -7 -117 39 -240
122 -130 89 -184 115 -239 115 -51 0 -57 -17 -29 -74 22 -47 70 -92 223 -210
82 -63 147 -134 147 -159 0 -6 -15 3 -32 20 -45 42 -70 53 -120 53 -94 0 -158
-63 -158 -157 0 -47 4 -59 29 -84 26 -25 37 -29 88 -29 l58 0 -42 36 c-37 31
-43 41 -43 74 0 81 116 125 178 68 46 -44 55 -148 20 -218 -60 -118 -220 -145
-325 -55 -61 52 -95 129 -95 210 1 84 24 133 105 222 66 73 63 92 -10 55 -73
-38 -121 -110 -143 -216 -22 -106 7 -206 83 -284 64 -67 128 -95 212 -96 117
-1 179 41 309 209 80 104 76 119 -25 89 -13 -4 -18 5 -24 43 -12 87 -40 131
-158 251 l-112 114 140 -72 c151 -77 219 -94 298 -72 37 10 37 10 37 -18 0
-30 18 -80 29 -80 11 0 150 215 168 260 27 69 24 153 -10 222 -66 135 -238
208 -375 160z"/>
<path d="M1550 4570 c-18 -34 -8 -73 23 -90 24 -13 30 -13 55 0 40 23 42 70 3
93 -39 23 -68 22 -81 -3z"/>
<path d="M1691 4556 c-20 -24 -9 -69 21 -85 25 -14 29 -14 55 5 36 27 40 47
14 73 -24 24 -73 28 -90 7z"/>
<path d="M10480 4530 c0 -20 80 -62 127 -68 l48 -5 -20 23 c-40 44 -155 82
-155 50z"/>
<path d="M10323 4452 c-24 -4 -63 -46 -63 -69 0 -25 47 -63 78 -63 37 0 82 35
82 64 0 48 -41 76 -97 68z"/>
<path d="M1809 4309 c-28 -28 -22 -69 13 -88 25 -15 29 -14 52 8 28 26 34 69
14 89 -18 18 -56 14 -79 -9z"/>
<path d="M10230 4302 c-33 -33 -40 -79 -14 -89 23 -8 91 14 98 33 7 18 -22 75
-42 82 -6 2 -25 -10 -42 -26z"/>
<path d="M2037 4220 c-79 -20 -137 -68 -137 -114 0 -42 78 -131 98 -112 3 4 0
23 -7 42 -12 34 -12 38 12 62 54 53 187 35 230 -32 26 -39 21 -69 -15 -102
-26 -23 -30 -29 -16 -32 23 -4 93 33 112 60 10 14 16 44 16 80 0 50 -4 60 -33
91 -47 50 -175 78 -260 57z"/>
<path d="M2380 4210 c-36 -36 -23 -76 26 -86 25 -5 33 -1 47 20 22 33 21 49
-1 69 -25 22 -48 21 -72 -3z"/>
<path d="M1727 4202 c-20 -22 -22 -75 -4 -89 23 -18 57 -22 72 -7 21 21 30 81
15 99 -17 21 -63 19 -83 -3z"/>
<path d="M10123 4193 c-19 -7 -16 -58 5 -76 24 -22 44 -21 73 2 21 17 22 21
10 50 -11 26 -19 31 -45 30 -17 0 -37 -3 -43 -6z"/>
<path d="M10323 4149 c-44 -13 -91 -63 -99 -106 -9 -48 27 -159 69 -215 36
-47 87 -85 126 -95 48 -12 100 39 116 115 8 39 -7 42 -39 7 -27 -29 -56 -32
-91 -9 -74 49 -94 185 -35 239 18 16 24 17 60 5 70 -23 62 13 -11 51 -42 21
-49 22 -96 8z"/>
<path d="M1626 4091 c-57 -63 25 -160 84 -101 26 26 25 60 -1 94 -24 31 -59
34 -83 7z"/>
<path d="M2432 4083 c-5 -10 -13 -32 -16 -50 -6 -26 -4 -34 14 -43 28 -15 71
-9 84 13 9 13 6 26 -9 55 -23 42 -58 54 -73 25z"/>
<path d="M2505 3968 c-31 -17 -45 -39 -45 -74 0 -41 23 -64 64 -64 54 0 91 63
65 112 -21 39 -46 47 -84 26z"/>
<path d="M2760 3954 c-52 -45 -86 -138 -60 -169 21 -25 130 -20 171 8 68 46
75 97 20 156 -38 40 -86 42 -131 5z"/>
<path d="M3289 3926 c-130 -46 -212 -156 -213 -286 -1 -96 30 -152 153 -274
110 -109 127 -114 118 -35 l-6 49 57 0 c74 0 153 37 246 116 151 128 154 129
70 9 -97 -140 -118 -188 -119 -277 l0 -78 -40 0 c-46 0 -75 -14 -60 -29 66
-63 195 -162 238 -184 71 -35 168 -37 237 -6 124 56 205 205 181 334 -13 69
-52 149 -94 194 -38 40 -120 81 -162 81 l-30 -1 31 -27 c17 -15 56 -46 87 -69
103 -77 140 -187 102 -306 -34 -109 -109 -166 -219 -167 -115 0 -185 68 -193
188 -3 55 -1 73 16 99 34 53 118 57 167 8 34 -34 31 -76 -8 -121 l-33 -37 50
5 c156 18 130 238 -31 264 -59 9 -124 -22 -160 -75 -31 -48 -39 -48 -22 0 15
45 51 97 135 194 123 142 166 222 143 265 -27 50 -90 12 -260 -155 -129 -128
-177 -165 -211 -165 -5 0 7 15 27 32 64 57 79 120 44 195 -33 73 -126 110
-194 78 -36 -17 -43 -28 -56 -84 -14 -57 -2 -67 36 -30 25 24 43 33 69 33 101
0 126 -160 31 -199 -88 -37 -196 -5 -251 73 -26 38 -30 53 -30 110 0 55 5 75
27 113 50 85 166 139 266 124 71 -11 118 -40 199 -123 l75 -77 -6 40 c-20 144
-250 257 -407 201z"/>
<path d="M9739 3869 c40 -71 77 -189 91 -285 10 -77 30 -124 52 -124 23 0 -13
229 -52 331 -11 30 -20 54 -20 54 190 0 265 8 358 37 28 8 31 12 20 25 -13 16
-18 16 -190 -7 -85 -11 -222 -3 -271 16 -16 6 -14 -2 12 -47z"/>
<path d="M2590 3826 c0 -21 13 -41 81 -129 24 -31 56 -33 51 -2 -2 11 -19 37
-38 57 -19 21 -34 43 -34 48 0 13 -37 50 -50 50 -5 0 -10 -11 -10 -24z"/>
<path d="M10125 3799 c-27 -10 -71 -35 -96 -53 -41 -30 -48 -41 -63 -100 -20
-80 -21 -156 -2 -182 14 -18 15 -18 19 6 43 216 44 218 179 292 43 24 78 46
78 51 0 14 -65 6 -115 -14z"/>
<path d="M9917 3793 c-26 -4 -27 -7 -21 -41 16 -89 54 -136 54 -67 0 39 25 71
65 81 14 3 25 10 25 14 0 18 -51 24 -123 13z"/>
<path d="M2509 3681 c-24 -15 -52 -43 -63 -61 l-18 -32 23 7 c50 16 98 46 118
74 12 16 21 32 21 35 0 15 -40 4 -81 -23z"/>
<path d="M2730 3653 c-31 -12 -50 -37 -50 -68 0 -39 16 -54 63 -62 29 -4 40
-1 61 20 41 41 34 87 -17 106 -31 12 -35 12 -57 4z"/>
<path d="M10318 3649 c-41 -23 -8 -89 45 -89 47 0 76 57 45 88 -15 15 -66 15
-90 1z"/>
<path d="M10463 3638 c-41 -20 -34 -82 12 -94 60 -15 96 20 81 81 -5 20 -12
25 -39 24 -17 0 -42 -5 -54 -11z"/>
<path d="M10614 3617 c-30 -27 -38 -82 -13 -98 48 -30 128 14 115 65 -14 57
-57 71 -102 33z"/>
<path d="M2820 3531 c-15 -30 -12 -78 6 -85 32 -12 83 -6 93 11 12 22 -13 67
-46 82 -33 15 -41 14 -53 -8z"/>
<path d="M9593 3463 c-14 -5 -17 -61 -5 -79 13 -20 59 -25 76 -8 45 44 -10
112 -71 87z"/>
<path d="M2946 3437 c-12 -9 -17 -23 -14 -47 3 -31 6 -35 36 -38 41 -4 62 12
62 47 0 47 -44 67 -84 38z"/>
<path d="M10162 3438 c-24 -24 -9 -89 23 -102 17 -6 55 9 67 28 32 48 -49 115
-90 74z"/>
<path d="M9752 3390 c-73 -45 -95 -141 -46 -200 30 -35 84 -67 84 -49 0 6 -9
22 -20 36 -11 14 -20 33 -20 43 0 22 42 68 75 80 102 39 239 -34 191 -101 -19
-28 -21 -49 -4 -49 23 0 78 46 94 78 21 44 5 84 -49 123 -82 59 -239 79 -305
39z"/>
<path d="M8484 3390 c-62 -13 -107 -34 -146 -69 -35 -31 -75 -97 -64 -108 3
-3 36 18 74 46 91 67 133 84 209 83 147 -1 263 -109 263 -242 0 -138 -109
-228 -243 -200 -76 15 -117 53 -117 107 0 62 43 112 96 113 36 0 55 -14 83
-59 18 -31 21 -33 28 -15 4 10 8 38 8 62 0 37 -5 48 -33 73 -27 24 -41 29 -86
29 -62 0 -109 -26 -140 -79 -25 -43 -26 -119 -3 -152 9 -13 25 -35 34 -49 l18
-25 -32 20 c-42 27 -82 78 -161 210 -71 118 -135 190 -177 201 -35 9 -45 -7
-45 -69 0 -41 13 -72 85 -212 81 -157 113 -239 102 -267 -3 -8 -9 -1 -16 17
-23 60 -36 77 -79 102 -80 47 -179 17 -222 -67 -34 -67 -20 -119 42 -151 62
-31 71 -26 46 25 -34 71 -8 119 73 132 48 8 101 -29 113 -78 20 -81 -43 -191
-129 -224 -143 -54 -288 63 -288 235 0 123 66 211 201 267 91 38 101 46 67 56
-74 19 -188 -37 -253 -124 -57 -77 -76 -134 -70 -216 15 -210 200 -341 387
-273 48 17 232 112 251 128 11 10 -36 33 -67 33 -18 0 -33 2 -33 5 0 2 7 30
15 62 22 80 13 135 -46 281 -27 67 -49 125 -49 128 0 14 26 -15 95 -105 83
-108 152 -164 223 -180 24 -5 46 -12 49 -14 3 -3 -1 -21 -8 -40 -6 -19 -9 -42
-6 -52 6 -15 10 -15 44 6 196 117 264 179 290 268 38 132 -36 290 -168 357
-53 26 -151 38 -215 24z"/>
<path d="M2719 3321 c-57 -56 -50 -84 10 -40 27 20 30 20 58 5 33 -17 63 -76
63 -126 0 -89 -89 -175 -130 -125 -12 14 -50 21 -50 10 0 -17 43 -86 62 -99
90 -63 205 66 215 238 4 70 1 86 -17 114 -24 39 -73 62 -131 62 -35 0 -48 -6
-80 -39z"/>
<path d="M9529 3340 c-9 -5 -22 -23 -29 -40 -17 -40 0 -60 50 -60 40 0 50 11
50 55 0 52 -29 70 -71 45z"/>
<path d="M10222 3318 c-14 -14 -16 -77 -3 -97 5 -8 24 -14 42 -14 53 0 77 54
43 101 -17 24 -62 30 -82 10z"/>
<path d="M9124 3301 c-65 -39 -80 -90 -43 -142 31 -43 91 -71 147 -67 l47 3 3
54 c4 66 -10 102 -55 141 -39 35 -57 37 -99 11z"/>
<path d="M3400 3235 c-73 -31 -194 -55 -273 -55 -73 0 -127 -15 -127 -36 0
-29 243 -14 369 22 21 6 23 5 17 -12 -12 -31 -19 -195 -12 -275 8 -86 18 -111
37 -92 9 9 13 63 14 175 2 130 6 177 22 231 11 37 18 66 14 66 -3 -1 -31 -12
-61 -24z"/>
<path d="M9417 3237 c-29 -21 -32 -77 -7 -110 46 -58 134 -15 116 56 -14 57
-69 84 -109 54z"/>
<path d="M10291 3174 c-25 -32 -27 -76 -5 -94 23 -20 75 -16 90 5 20 27 17 79
-4 98 -27 24 -58 21 -81 -9z"/>
<path d="M9316 3095 c-15 -19 -40 -42 -56 -50 -16 -8 -32 -24 -35 -36 -16 -50
22 -35 103 39 67 63 76 82 38 82 -15 0 -33 -12 -50 -35z"/>
<path d="M3245 3091 c-35 -6 -89 -28 -75 -32 84 -18 94 -24 109 -64 18 -51 20
-53 31 -35 6 8 10 43 10 78 0 68 4 66 -75 53z"/>
<path d="M2990 3059 c-23 -10 -15 -14 77 -44 56 -19 111 -38 121 -44 10 -6 41
-58 68 -116 27 -58 53 -105 58 -105 19 0 -2 117 -34 183 -35 75 -62 95 -167
122 -66 17 -88 18 -123 4z"/>
<path d="M5164 3021 c-42 -26 -74 -84 -129 -238 -48 -133 -99 -233 -123 -241
-9 -3 -7 9 7 37 65 127 -47 272 -180 232 -83 -25 -113 -96 -73 -173 l16 -32
14 40 c15 43 55 84 83 84 34 0 85 -44 100 -86 13 -38 13 -44 -5 -75 -38 -65
-147 -103 -225 -80 -74 22 -131 92 -145 179 -20 129 124 282 266 282 37 0 126
-28 183 -57 77 -38 91 -26 35 29 -60 61 -130 83 -234 75 -132 -10 -219 -70
-272 -187 -69 -150 -19 -301 127 -379 60 -31 221 -91 248 -91 19 0 15 31 -7
60 -11 14 -20 28 -20 32 0 4 20 16 44 27 72 31 122 93 189 231 66 135 80 138
51 12 -10 -44 -18 -118 -18 -172 -1 -86 2 -100 27 -144 15 -27 27 -50 27 -52
0 -2 -18 -11 -39 -20 -69 -27 -60 -40 47 -74 214 -68 308 -62 402 26 69 64 95
128 95 234 0 73 -4 92 -27 135 -57 107 -174 187 -277 188 -61 0 -115 -19 -90
-33 8 -4 50 -15 93 -24 98 -19 160 -56 203 -119 80 -119 61 -272 -44 -347 -82
-60 -191 -52 -258 17 -101 104 -75 233 47 233 61 0 92 -32 86 -87 -3 -21 -8
-46 -12 -55 -13 -29 17 -21 60 16 33 29 39 39 39 74 0 109 -143 182 -236 119
-45 -31 -79 -83 -79 -123 0 -19 -5 -34 -11 -34 -22 0 -1 140 41 283 46 158 53
252 22 280 -16 15 -20 15 -48 -2z"/>
<path d="M9360 2989 c0 -29 51 -96 90 -118 l42 -23 -7 23 c-4 13 -19 40 -35
59 -32 41 -90 79 -90 59z"/>
<path d="M9118 2969 c-27 -15 -23 -71 5 -97 48 -46 127 -18 127 43 0 50 -83
83 -132 54z"/>
<path d="M9005 2866 c-14 -14 -25 -32 -25 -40 0 -22 35 -38 78 -34 37 3 37 3
37 48 0 43 -1 45 -32 48 -24 2 -39 -3 -58 -22z"/>
<path d="M2862 2864 c-47 -33 -9 -107 45 -88 15 5 34 21 42 36 14 24 14 28 -3
47 -23 25 -53 27 -84 5z"/>
<path d="M6633 2853 c-16 -25 -18 -52 -16 -263 2 -184 0 -241 -11 -265 -14
-30 -14 -29 -15 31 -1 77 -27 120 -94 153 -43 21 -52 22 -95 11 -85 -21 -142
-103 -112 -161 17 -32 51 -69 64 -69 7 0 10 19 8 49 -5 65 19 91 83 91 63 0
110 -41 110 -97 0 -88 -95 -173 -192 -173 -70 0 -110 18 -156 69 -47 53 -57
78 -57 149 0 76 42 166 98 210 60 48 111 62 223 62 55 0 99 4 99 9 0 23 -77
46 -150 46 -90 -1 -158 -31 -233 -103 -119 -116 -119 -320 1 -440 54 -54 113
-72 232 -72 149 0 222 10 218 29 -2 9 -18 25 -35 36 -18 11 -32 23 -33 27 0 4
13 22 29 40 62 71 81 148 81 322 0 69 4 106 9 101 6 -6 21 -58 35 -117 40
-168 74 -234 147 -283 l40 -26 -30 -29 c-41 -38 -41 -60 2 -60 84 0 234 31
295 61 107 52 158 146 150 272 -9 141 -92 246 -229 288 -109 34 -201 21 -267
-37 -44 -39 -33 -42 63 -19 176 43 294 -6 361 -150 31 -66 31 -131 0 -193 -56
-110 -158 -149 -261 -101 -50 24 -101 77 -111 114 -19 76 85 153 156 115 20
-11 40 -59 40 -98 0 -21 2 -23 16 -11 22 18 44 64 44 93 0 90 -126 149 -218
102 -52 -27 -77 -72 -77 -141 0 -33 4 -69 8 -80 7 -17 5 -16 -12 4 -28 32 -47
102 -66 245 -19 147 -41 228 -71 261 -30 32 -49 32 -71 -2z"/>
<path d="M2716 2825 c-37 -37 -6 -95 51 -95 33 0 63 26 63 56 0 31 -12 41 -56
48 -32 6 -45 3 -58 -9z"/>
<path d="M3616 2818 c-20 -29 -20 -41 2 -66 39 -46 109 9 83 65 -14 31 -64 31
-85 1z"/>
<path d="M8876 2814 c-22 -21 -20 -50 4 -74 36 -36 73 -24 84 27 7 28 4 33
-23 47 -38 20 -46 20 -65 0z"/>
<path d="M2570 2774 c-20 -23 -16 -75 5 -90 23 -17 87 -18 103 -2 34 34 -11
108 -66 108 -16 0 -35 -7 -42 -16z"/>
<path d="M4095 2768 c-50 -39 -66 -104 -44 -180 9 -33 14 -38 40 -38 78 0 159
72 159 140 0 35 -5 43 -42 70 -49 36 -76 38 -113 8z"/>
<path d="M3425 2734 c-114 -27 -215 -111 -215 -180 0 -44 44 -90 96 -100 46
-9 50 -2 19 34 -14 16 -25 37 -25 45 0 22 38 65 73 84 41 21 129 21 161 -1 42
-27 51 -53 30 -92 -25 -47 -10 -54 31 -14 44 43 53 86 31 145 -29 76 -98 103
-201 79z"/>
<path d="M3717 2733 c-13 -12 -7 -82 8 -97 12 -11 23 -12 47 -5 18 5 34 9 34
9 10 0 11 36 2 53 -21 39 -70 61 -91 40z"/>
<path d="M8408 2603 c-4 -102 -11 -155 -27 -203 -22 -69 -26 -116 -12 -139 7
-11 11 -10 19 5 29 57 61 187 77 317 4 26 8 47 9 47 2 0 34 -14 72 -31 66 -30
237 -79 275 -79 26 0 24 27 -3 41 -12 7 -56 20 -98 31 -82 20 -221 82 -274
123 l-33 25 -5 -137z"/>
<path d="M3066 2689 c-30 -23 -33 -45 -10 -77 18 -27 55 -29 77 -4 21 23 22
51 1 80 -19 27 -34 28 -68 1z"/>
<path d="M8996 2700 c-62 -20 -91 -65 -101 -162 -10 -93 20 -192 70 -237 42
-37 71 -39 115 -8 34 23 68 72 58 82 -3 3 -23 -1 -44 -10 -38 -16 -38 -15 -67
14 -55 54 -47 174 14 226 39 32 66 32 101 -2 36 -34 46 -24 21 23 -34 67 -99
95 -167 74z"/>
<path d="M3829 2641 c-16 -16 -29 -39 -29 -50 0 -78 78 -109 123 -49 18 24 19
32 9 66 -8 25 -21 43 -37 50 -34 16 -32 16 -66 -17z"/>
<path d="M3050 2573 c-41 -15 -54 -78 -22 -106 23 -21 66 -22 82 -2 17 20 6
86 -17 102 -18 14 -20 14 -43 6z"/>
<path d="M3954 2558 c-15 -25 156 -132 177 -111 16 16 -1 41 -36 53 -19 6 -50
24 -71 41 -39 31 -59 36 -70 17z"/>
<path d="M8509 2523 c-5 -15 -9 -49 -7 -77 l3 -50 28 42 c25 39 31 42 72 42
25 0 45 4 45 10 0 11 -63 44 -103 54 -23 6 -29 3 -38 -21z"/>
<path d="M8635 2459 c-42 -6 -57 -15 -94 -56 -24 -26 -55 -70 -67 -98 -23 -49
-31 -95 -16 -95 4 0 28 31 55 68 88 123 83 121 194 133 54 6 109 13 123 16 24
5 23 6 -15 24 -42 19 -97 22 -180 8z"/>
<path d="M4156 2439 c-49 -38 -22 -119 40 -119 33 0 84 50 84 83 0 54 -74 76
-124 36z"/>
<path d="M2983 2418 c-20 -26 -22 -50 -8 -84 12 -28 19 -34 45 -34 48 0 70 16
70 51 0 55 -78 104 -107 67z"/>
<path d="M3960 2400 c-30 -32 -54 -89 -48 -116 3 -14 6 -13 29 5 27 21 52 66
64 114 10 37 -9 35 -45 -3z"/>
<path d="M7580 2409 c-63 -25 -77 -77 -40 -149 20 -39 90 -90 123 -90 9 0 26
18 38 42 17 32 20 54 17 100 -7 93 -58 129 -138 97z"/>
<path d="M4308 2389 c-23 -13 -24 -72 -2 -90 24 -19 98 8 102 38 5 35 -66 72
-100 52z"/>
<path d="M4940 2334 c-61 -64 -136 -117 -222 -160 -85 -43 -108 -60 -108 -85
0 -16 7 -15 69 11 82 35 171 86 225 129 21 17 42 31 45 31 3 0 18 -40 33 -88
27 -85 114 -253 133 -256 26 -3 14 54 -29 138 -42 85 -75 184 -93 284 l-8 43
-45 -47z"/>
<path d="M8103 2369 c-18 -7 -23 -16 -23 -47 0 -32 5 -41 25 -50 36 -17 42
-15 61 13 30 45 -14 103 -63 84z"/>
<path d="M4462 2350 c-18 -11 -32 -24 -32 -29 0 -22 20 -59 34 -64 24 -10 66
13 72 40 14 54 -26 82 -74 53z"/>
<path d="M7967 2270 c-15 -12 -27 -30 -27 -40 0 -23 36 -50 67 -50 26 0 56 49
51 83 -4 31 -55 35 -91 7z"/>
<path d="M8183 2231 c-46 -21 -83 -78 -83 -127 0 -37 49 -119 62 -106 7 7 7
21 -1 43 -16 45 -15 47 22 69 81 50 215 -5 233 -96 5 -27 2 -34 -25 -53 -46
-33 -39 -44 21 -39 42 4 57 11 80 37 33 37 34 52 9 107 -25 56 -80 108 -150
143 -80 41 -117 45 -168 22z"/>
<path d="M8833 2243 c-37 -14 3 -103 46 -103 19 0 61 43 61 61 0 33 -67 59
-107 42z"/>
<path d="M7837 2228 c-21 -17 -38 -63 -30 -85 29 -82 133 -62 133 24 0 58 -60
93 -103 61z"/>
<path d="M5771 2204 c-33 -42 -29 -118 9 -177 19 -30 37 -47 49 -47 30 0 82
49 103 98 39 87 -1 152 -93 152 -39 0 -51 -4 -68 -26z"/>
<path d="M4345 2206 c-39 -17 -54 -36 -70 -91 -12 -39 -12 -45 0 -45 8 0 21
14 30 30 11 22 23 30 43 30 102 0 173 -170 102 -245 -19 -20 -26 -22 -52 -13
-37 13 -59 -2 -38 -27 18 -21 84 -55 107 -55 30 0 64 30 84 74 34 76 18 228
-33 299 -38 53 -109 71 -173 43z"/>
<path d="M6721 2159 c-20 -67 -87 -187 -146 -259 -57 -70 -78 -110 -66 -128
13 -22 141 128 202 235 18 32 33 59 34 61 2 2 42 -37 91 -85 91 -90 199 -172
211 -160 14 15 -19 58 -85 110 -93 75 -153 144 -217 252 -9 15 -13 11 -24 -26z"/>
<path d="M8940 2161 c-5 -11 -10 -27 -10 -35 0 -24 41 -56 71 -56 50 0 81 78
40 100 -33 17 -89 12 -101 -9z"/>
<path d="M4853 2135 c-66 -44 -68 -59 -7 -49 42 6 48 4 80 -27 18 -18 37 -30
40 -26 15 14 -34 138 -54 136 -4 0 -31 -15 -59 -34z"/>
<path d="M7710 2150 c-19 -10 -49 -19 -66 -20 -28 0 -64 -25 -64 -45 0 -13 82
1 145 26 36 14 60 30 60 39 0 22 -35 22 -75 0z"/>
<path d="M8610 2110 c-22 -22 -27 -69 -8 -88 20 -20 65 -14 82 10 22 31 20 45
-9 73 -29 30 -39 31 -65 5z"/>
<path d="M7456 2107 c-12 -9 -18 -26 -18 -52 0 -70 77 -110 122 -65 29 29 25
66 -9 101 -32 31 -66 37 -95 16z"/>
<path d="M9100 2097 c-13 -7 -31 -25 -40 -39 -14 -26 -13 -29 5 -48 32 -31 79
-36 104 -11 53 53 -2 132 -69 98z"/>
<path d="M5327 2069 c-31 -23 -34 -45 -11 -77 19 -28 45 -28 71 1 24 26 18 63
-13 84 -18 12 -24 11 -47 -8z"/>
<path d="M7177 2062 c-22 -24 -22 -55 1 -75 27 -25 59 -21 78 9 16 24 16 27
-3 52 -25 33 -54 39 -76 14z"/>
<path d="M7328 2069 c-52 -20 -41 -63 24 -90 27 -11 32 -10 45 7 19 26 27 64
17 74 -15 15 -58 19 -86 9z"/>
<path d="M4760 2053 c-67 -11 -130 -42 -130 -63 0 -3 24 -3 53 1 28 4 84 8
122 8 l71 1 87 -75 c48 -41 89 -75 91 -75 3 0 1 13 -4 30 -11 40 -60 98 -119
143 -41 32 -55 37 -97 36 -27 -1 -60 -4 -74 -6z"/>
<path d="M7700 2013 c1 -34 22 -94 45 -129 26 -40 38 -11 24 55 -16 78 -70
135 -69 74z"/>
<path d="M5437 2013 c-15 -14 -6 -44 22 -75 l29 -33 29 21 c36 27 41 57 11 78
-23 16 -79 22 -91 9z"/>
<path d="M5585 1985 c-32 -31 -32 -66 1 -104 30 -36 61 -40 92 -11 32 30 29
75 -7 111 -36 35 -54 36 -86 4z"/>
<path d="M6292 1983 c-7 -3 -19 -18 -28 -34 -13 -27 -13 -31 3 -54 10 -13 26
-25 36 -25 22 0 57 35 57 58 0 34 -38 65 -68 55z"/>
<path d="M8600 1948 c-21 -47 -17 -66 17 -79 34 -13 40 -12 63 11 40 40 15
110 -39 110 -16 0 -27 -11 -41 -42z"/>
<path d="M6732 1944 c-35 -42 -57 -94 -41 -94 6 0 22 9 36 20 31 24 54 25 94
4 57 -29 47 5 -19 69 l-39 38 -31 -37z"/>
<path d="M5733 1954 c-18 -8 -16 -31 2 -38 8 -3 55 -8 105 -12 80 -6 90 -5 90
10 0 21 -17 27 -77 30 -26 2 -61 5 -78 9 -16 3 -36 4 -42 1z"/>
<path d="M5966 1929 c-33 -39 -33 -63 0 -95 60 -60 146 28 104 107 -17 32 -73
25 -104 -12z"/>
<path d="M6118 1939 c-10 -5 -18 -18 -18 -28 0 -22 37 -71 54 -71 15 0 76 62
76 78 0 28 -76 42 -112 21z"/>
<path d="M5194 1904 c-92 -61 -150 -142 -161 -224 -5 -34 -1 -43 25 -70 27
-26 37 -30 86 -30 30 0 57 4 61 10 3 5 -13 19 -36 30 -40 21 -41 23 -36 60 10
77 85 139 167 140 53 0 83 -25 77 -65 -8 -48 7 -65 26 -29 15 29 20 59 18 101
-1 12 -18 40 -39 63 -36 37 -43 40 -94 40 -43 0 -64 -6 -94 -26z"/>
<path d="M7174 1901 c-78 -48 -137 -195 -119 -299 7 -46 34 -79 71 -88 31 -8
98 13 120 37 14 16 14 18 -5 24 -12 3 -30 4 -40 0 -44 -14 -69 92 -37 154 8
15 31 42 51 60 31 27 44 32 78 29 38 -3 43 -6 53 -38 6 -19 17 -36 24 -38 21
-7 7 103 -16 129 -43 49 -127 63 -180 30z"/>
<path d="M6701 1825 c-83 -45 -156 -114 -138 -131 3 -3 45 18 93 46 49 28 99
53 110 56 22 6 145 -25 209 -52 38 -15 41 -13 25 17 -17 30 -174 100 -224 99
-6 0 -40 -16 -75 -35z"/>
<path d="M5796 1817 c-17 -37 -20 -118 -6 -152 7 -18 10 -16 24 17 17 40 21
134 7 156 -6 10 -13 4 -25 -21z"/>
<path d="M8616 1818 c-35 -33 -41 -63 -17 -87 30 -30 75 -27 100 5 26 33 27
58 1 84 -26 26 -53 25 -84 -2z"/>
<path d="M6292 1823 c-12 -2 -41 -21 -62 -42 -35 -33 -40 -43 -40 -84 0 -82
25 -107 36 -36 5 31 13 43 32 50 77 29 192 -61 192 -151 0 -41 -16 -70 -40
-70 -24 0 -50 -10 -50 -20 0 -12 59 -30 101 -30 47 0 89 44 89 94 0 57 -29
132 -75 195 -57 77 -115 107 -183 94z"/>
<path d="M4618 1799 c-32 -18 -41 -48 -23 -75 31 -48 105 -19 105 41 0 40 -42
58 -82 34z"/>
<path d="M4860 1711 c-28 -54 8 -113 58 -95 54 19 34 114 -24 114 -13 0 -28
-9 -34 -19z"/>
<path d="M4513 1705 c-32 -14 -38 -23 -33 -55 10 -72 120 -60 120 14 0 55 -27
67 -87 41z"/>
<path d="M4379 1589 c-11 -11 -18 -27 -15 -36 3 -8 6 -18 6 -23 0 -18 33 -40
61 -40 30 0 79 37 79 60 0 6 -11 22 -25 35 -30 31 -77 33 -106 4z"/>
<path d="M4887 1582 c-23 -25 -21 -64 3 -90 24 -26 47 -28 78 -6 29 20 28 46
-4 83 -29 35 -54 39 -77 13z"/>
<path d="M6902 1558 c-26 -26 -11 -85 26 -99 32 -12 72 12 72 44 0 47 -68 85
-98 55z"/>
<path d="M6658 1534 c-31 -16 -46 -59 -31 -83 6 -9 24 -17 40 -19 55 -6 81 48
47 96 -18 26 -20 26 -56 6z"/>
<path d="M6976 1438 c-21 -29 -20 -40 5 -72 26 -33 71 -35 93 -4 24 34 19 56
-16 78 -43 26 -63 25 -82 -2z"/>
<path d="M4900 1430 c-25 -25 -25 -37 0 -77 16 -27 26 -33 54 -33 25 0 39 7
50 22 23 33 20 53 -15 82 -37 31 -62 33 -89 6z"/>
<path d="M6594 1402 c-37 -32 -46 -57 -26 -80 29 -34 58 -37 87 -8 29 30 32
66 7 89 -23 21 -41 21 -68 -1z"/>
<path d="M7051 1304 c-19 -24 -19 -29 -6 -54 16 -31 33 -40 75 -40 31 0 45 13
55 51 15 61 -83 95 -124 43z"/>
<path d="M6517 1252 c-37 -40 -9 -102 45 -102 27 0 78 49 78 74 0 42 -92 63
-123 28z"/>
</g>
</svg>
