<?xml version="1.0" standalone="no"?>
<!DOCTYPE svg PUBLIC "-//W3C//DTD SVG 20010904//EN"
 "http://www.w3.org/TR/2001/REC-SVG-20010904/DTD/svg10.dtd">
<svg version="1.0" xmlns="http://www.w3.org/2000/svg"
 width="640.000000pt" height="1280.000000pt" viewBox="0 0 640.000000 1280.000000"
 preserveAspectRatio="xMidYMid meet">
<metadata>
Created by potrace 1.15, written by Peter Selinger 2001-2017
</metadata>
<g transform="translate(0.000000,1280.000000) scale(0.100000,-0.100000)"
fill="#ff5722" stroke="none">
<path d="M2985 12776 c-154 -50 -279 -130 -331 -212 -25 -39 -43 -55 -71 -65
-44 -14 -107 -55 -141 -92 l-23 -25 63 13 63 13 -29 -21 c-58 -43 -108 -91
-122 -119 -36 -70 -54 -257 -35 -371 8 -45 6 -49 -21 -68 -62 -44 -91 -146
-64 -227 20 -60 22 -101 19 -486 -3 -279 -4 -298 -20 -291 -73 28 -282 77
-351 82 -80 6 -85 5 -156 -31 -96 -47 -163 -108 -230 -209 -76 -115 -108 -185
-151 -322 -21 -66 -53 -150 -71 -187 -19 -37 -34 -73 -34 -80 0 -6 10 -32 21
-56 19 -39 20 -48 9 -85 -25 -85 -91 -240 -125 -296 -38 -61 -104 -274 -127
-409 -15 -90 -5 -155 53 -341 23 -73 51 -186 63 -250 23 -124 27 -132 99 -201
37 -34 56 -45 91 -50 l45 -5 -49 -147 c-42 -126 -73 -193 -214 -457 -91 -170
-166 -318 -166 -329 0 -12 11 -29 24 -40 l25 -19 -54 -134 c-105 -258 -129
-479 -88 -789 36 -267 54 -597 73 -1310 5 -201 15 -506 21 -678 11 -298 8
-479 -11 -622 -13 -101 -79 -635 -90 -730 -5 -47 -15 -165 -22 -263 -13 -189
-9 -236 32 -446 10 -53 33 -170 50 -261 17 -91 40 -209 50 -262 19 -96 28
-178 51 -459 l11 -145 42 -12 42 -11 76 -233 c42 -128 99 -316 128 -418 68
-244 110 -332 197 -419 77 -75 183 -135 303 -172 62 -19 98 -23 210 -24 117 0
145 3 210 25 98 32 187 93 224 154 27 42 30 57 30 129 1 150 -61 299 -186 447
-111 133 -135 176 -197 352 -58 165 -83 217 -173 358 -26 41 -48 80 -48 87 0
6 13 40 29 76 l30 66 -34 203 c-18 112 -63 391 -100 621 l-66 418 -13 366 -13
367 23 50 c20 46 24 75 34 316 27 631 25 608 95 1030 51 310 155 1103 155
1185 0 57 107 -49 267 -264 320 -429 519 -681 741 -940 226 -263 266 -305 332
-359 21 -17 22 -22 11 -36 -17 -20 -11 -100 11 -143 9 -17 12 -35 8 -40 -4 -4
-20 -46 -35 -91 -28 -86 -37 -100 -198 -306 -127 -161 -140 -195 -262 -691
-67 -273 -125 -452 -237 -725 -62 -151 -98 -254 -98 -281 0 -8 38 -44 85 -79
l84 -64 -33 -41 c-99 -122 -121 -182 -156 -419 -12 -77 -25 -159 -30 -181 -14
-60 -12 -153 4 -183 17 -33 71 -65 151 -87 33 -10 92 -28 132 -41 93 -31 121
-30 174 6 52 35 100 39 146 10 18 -10 68 -55 111 -99 62 -64 93 -87 155 -116
219 -101 632 -148 759 -86 52 25 71 49 88 110 29 109 -78 313 -207 394 -21 13
-96 47 -168 76 -90 35 -151 67 -198 103 -96 72 -282 286 -264 304 3 4 45 1 92
-6 47 -7 88 -11 90 -9 2 2 44 200 95 439 l91 435 143 335 c79 184 170 396 201
470 84 201 278 588 324 645 84 106 96 127 94 164 -1 20 -19 81 -41 136 -93
235 -456 1014 -609 1305 l-164 315 -242 330 c-267 364 -579 840 -585 893 -2
17 0 32 4 32 5 0 54 7 109 15 152 23 223 62 356 194 140 141 174 189 254 361
109 234 176 422 182 510 13 183 -74 456 -228 717 -49 83 -51 89 -44 140 3 29
10 53 14 53 19 0 286 -133 319 -159 51 -40 76 -46 111 -25 28 17 30 16 149
-39 91 -42 157 -65 273 -92 293 -69 320 -73 485 -67 90 2 178 0 215 -7 35 -6
123 -13 194 -17 156 -7 186 3 223 76 33 64 25 103 -51 250 -49 93 -73 155 -96
245 -47 181 -122 394 -156 444 -34 52 -146 144 -324 269 -126 89 -686 538
-730 586 l-25 26 32 158 c37 188 52 285 55 371 2 63 2 64 -39 100 -23 20 -45
49 -48 65 -4 16 -23 45 -42 64 -34 34 -36 35 -99 29 l-65 -5 0 111 c0 61 2
108 4 106 2 -2 15 -31 30 -64 l25 -60 1 46 c0 59 -25 205 -44 250 -8 19 -24
47 -36 62 -12 15 -21 30 -19 32 15 14 139 -106 201 -195 l18 -25 -6 30 c-15
78 -46 165 -73 202 -17 23 -58 61 -91 85 -34 23 -57 44 -52 46 10 3 126 -33
212 -67 l55 -21 -70 65 c-81 76 -147 112 -225 120 -88 10 -90 14 -25 46 70 34
187 135 145 125 -43 -11 -214 -36 -241 -36 -18 0 -35 12 -57 39 -55 68 -219
132 -400 156 -155 20 -224 18 -307 -9z m455 -76 c58 -13 138 -50 179 -81 21
-17 22 -19 5 -19 -11 0 -65 13 -122 29 -182 53 -203 55 -308 36 -125 -22 -139
-19 -96 24 l33 34 127 -6 c70 -3 152 -11 182 -17z m-514 -56 c-31 -33 -56 -62
-56 -66 0 -5 -16 -8 -36 -8 l-35 0 18 31 c23 39 68 75 119 93 21 7 40 12 42
11 2 -2 -22 -29 -52 -61z m829 -1786 c-15 -114 -48 -264 -71 -326 -13 -36 -26
-67 -28 -69 -1 -2 -31 6 -66 17 -35 11 -125 27 -199 36 -75 8 -155 18 -179 20
l-43 5 27 47 c15 26 28 48 29 49 1 2 37 -17 81 -42 105 -60 135 -62 257 -13
47 18 84 40 93 54 9 12 29 79 46 148 22 89 35 126 45 126 12 0 14 -10 8 -52z
m45 -80 c0 -4 24 -23 53 -41 76 -49 353 -376 467 -551 50 -76 88 -141 86 -143
-9 -9 -78 28 -101 55 -15 18 -57 41 -117 65 -52 20 -130 58 -173 83 -44 25
-127 73 -185 106 -58 32 -115 68 -128 78 l-24 19 26 63 c24 61 66 242 66 290
1 22 1 22 15 4 8 -11 15 -23 15 -28z m-195 -1588 c110 -192 188 -442 187 -600
0 -89 -3 -104 -50 -230 -57 -153 -103 -262 -109 -257 -2 3 10 54 27 116 29
103 31 120 28 243 -3 129 -4 135 -39 208 -20 41 -77 130 -127 197 -84 111 -91
124 -82 150 5 15 28 88 50 162 30 96 45 130 51 120 5 -8 34 -57 64 -109z m12
-504 c61 -118 71 -268 28 -427 -14 -52 -32 -125 -41 -164 -42 -181 -71 -230
-237 -398 -67 -67 -112 -103 -164 -130 -71 -37 -187 -67 -258 -67 -32 0 -34 3
-49 54 -19 63 -53 108 -96 126 -16 7 -30 16 -30 20 0 4 55 86 121 181 242 346
359 568 463 876 l68 203 90 -123 c50 -67 97 -135 105 -151z"/>
</g>
</svg>
